<svg xmlns="http://www.w3.org/2000/svg" xmlns:xlink="http://www.w3.org/1999/xlink" width="471.70098876953125" height="471.70098876953125" version="1.1" style="" xml:space="preserve"><rect id="backgroundrect" width="100%" height="100%" x="0" y="0" fill="none" stroke="none"/>
















<g class="currentLayer" style=""><title>Layer 1</title><g id="svg_1" class="" fill="#eb1a1a" fill-opacity="1">
	<path d="M433.601,67.001c-24.7-24.7-57.4-38.2-92.3-38.2s-67.7,13.6-92.4,38.3l-12.9,12.9l-13.1-13.1   c-24.7-24.7-57.6-38.4-92.5-38.4c-34.8,0-67.6,13.6-92.2,38.2c-24.7,24.7-38.3,57.5-38.2,92.4c0,34.9,13.7,67.6,38.4,92.3   l187.8,187.8c2.6,2.6,6.1,4,9.5,4c3.4,0,6.9-1.3,9.5-3.9l188.2-187.5c24.7-24.7,38.3-57.5,38.3-92.4   C471.801,124.501,458.301,91.701,433.601,67.001z M414.401,232.701l-178.7,178l-178.3-178.3c-19.6-19.6-30.4-45.6-30.4-73.3   s10.7-53.7,30.3-73.2c19.5-19.5,45.5-30.3,73.1-30.3c27.7,0,53.8,10.8,73.4,30.4l22.6,22.6c5.3,5.3,13.8,5.3,19.1,0l22.4-22.4   c19.6-19.6,45.7-30.4,73.3-30.4c27.6,0,53.6,10.8,73.2,30.3c19.6,19.6,30.3,45.6,30.3,73.3   C444.801,187.101,434.001,213.101,414.401,232.701z" id="svg_2" fill="#eb1a1a" fill-opacity="1"/>
</g><g id="svg_3">
</g><g id="svg_4">
</g><g id="svg_5">
</g><g id="svg_6">
</g><g id="svg_7">
</g><g id="svg_8">
</g><g id="svg_9">
</g><g id="svg_10">
</g><g id="svg_11">
</g><g id="svg_12">
</g><g id="svg_13">
</g><g id="svg_14">
</g><g id="svg_15">
</g><g id="svg_16">
</g><g id="svg_17">
</g><rect fill="#eb1a1a" stroke-dashoffset="" fill-rule="nonzero" id="svg_18" x="96" y="99" width="57" height="49" style="color: rgb(0, 0, 0);"/><rect fill="#eb1a1a" stroke-dashoffset="" fill-rule="nonzero" id="svg_20" x="184" y="168" width="18" height="13" style="color: rgb(0, 0, 0);"/><rect fill="#eb1a1a" stroke-dashoffset="" fill-rule="nonzero" id="svg_19" x="68" y="62" width="143" height="138" style="color: rgb(0, 0, 0);"/><rect fill="#eb1a1a" stroke-dashoffset="" fill-rule="nonzero" id="svg_22" x="92" y="49" width="84" height="35" style="color: rgb(0, 0, 0);"/><rect fill="#eb1a1a" stroke-dashoffset="" fill-rule="nonzero" id="svg_24" x="46" y="73" width="101" height="160" style="color: rgb(0, 0, 0);"/><rect fill="#eb1a1a" stroke-dashoffset="" fill-rule="nonzero" id="svg_26" x="35" y="85" width="54" height="140" style="color: rgb(0, 0, 0);"/><rect fill="#eb1a1a" stroke-dashoffset="" fill-rule="nonzero" id="svg_28" x="190" y="95" width="91" height="301" style="color: rgb(0, 0, 0);"/><rect fill="#eb1a1a" stroke-dashoffset="" fill-rule="nonzero" id="svg_30" x="219" y="357" width="36" height="54" style="color: rgb(0, 0, 0);"/><rect fill="#eb1a1a" stroke-dashoffset="" fill-rule="nonzero" id="svg_32" x="253" y="72" width="184" height="152" style="color: rgb(0, 0, 0);"/><rect fill="#eb1a1a" stroke-dashoffset="" fill-rule="nonzero" id="svg_34" x="415" y="109" width="40" height="90" style="color: rgb(0, 0, 0);"/><rect fill="#eb1a1a" stroke-dashoffset="" fill-rule="nonzero" id="svg_36" x="295" y="46" width="106" height="43" style="color: rgb(0, 0, 0);"/><rect fill="#eb1a1a" stroke-dashoffset="" fill-rule="nonzero" id="svg_38" x="286" y="56" width="2" height="24" style="color: rgb(0, 0, 0);"/><rect fill="#eb1a1a" stroke-dashoffset="" fill-rule="nonzero" id="svg_40" x="280" y="66" width="29" height="10" style="color: rgb(0, 0, 0);"/><rect fill="#eb1a1a" stroke-dashoffset="" fill-rule="nonzero" id="svg_42" x="200" y="83" width="17" height="22" style="color: rgb(0, 0, 0);"/><rect fill="#eb1a1a" stroke-dashoffset="" fill-rule="nonzero" id="svg_44" x="255" y="184" width="54" height="181" style="color: rgb(0, 0, 0);"/><rect fill="#eb1a1a" stroke-dashoffset="" fill-rule="nonzero" id="svg_46" x="291" y="201" width="70" height="118" style="color: rgb(0, 0, 0);"/><rect fill="#eb1a1a" stroke-dashoffset="" fill-rule="nonzero" id="svg_48" x="332" y="194" width="48" height="95" style="color: rgb(0, 0, 0);"/><rect fill="#eb1a1a" stroke-dashoffset="" fill-rule="nonzero" id="svg_50" x="266" y="301" width="63" height="43" style="color: rgb(0, 0, 0);"/><rect fill="#eb1a1a" stroke-dashoffset="" fill-rule="nonzero" id="svg_52" x="375" y="204" width="26" height="69" style="color: rgb(0, 0, 0);"/><rect fill="#eb1a1a" stroke-dashoffset="" fill-rule="nonzero" id="svg_54" x="378" y="216" width="46" height="33" style="color: rgb(0, 0, 0);"/><rect fill="#eb1a1a" stroke-dashoffset="" fill-rule="nonzero" id="svg_56" x="24" y="114" width="34" height="93" style="color: rgb(0, 0, 0);"/><rect fill="#eb1a1a" stroke-dashoffset="" fill-rule="nonzero" id="svg_58" x="52" y="214" width="91" height="39" style="color: rgb(0, 0, 0);"/><rect fill="#eb1a1a" stroke-dashoffset="" fill-rule="nonzero" id="svg_60" x="128" y="190" width="87" height="141" style="color: rgb(0, 0, 0);"/><rect fill="#eb1a1a" stroke-dashoffset="" fill-rule="nonzero" id="svg_62" x="155" y="319" width="50" height="46" style="color: rgb(0, 0, 0);"/><rect fill="#eb1a1a" stroke-dashoffset="" fill-rule="nonzero" id="svg_64" x="104" y="241" width="49" height="63" style="color: rgb(0, 0, 0);"/><rect fill="#eb1a1a" stroke-dashoffset="" fill-rule="nonzero" id="svg_66" x="68" y="235" width="51" height="46" style="color: rgb(0, 0, 0);"/></g></svg>