<svg xmlns="http://www.w3.org/2000/svg" version="1.1" xmlns:xlink="http://www.w3.org/1999/xlink" xmlns:svgjs="http://svgjs.dev/svgjs" width="1000" height="623" viewBox="0 0 1000 623"><g transform="matrix(1,0,0,1,-0.6060606060606233,0.2522267206477409)"><svg viewBox="0 0 396 247" data-background-color="#fdf8f1" preserveAspectRatio="xMidYMid meet" height="623" width="1000" xmlns="http://www.w3.org/2000/svg" xmlns:xlink="http://www.w3.org/1999/xlink"><g id="tight-bounds" transform="matrix(1,0,0,1,0.2400000000000091,-0.09999999999999432)"><svg viewBox="0 0 395.52 247.2" height="247.2" width="395.52"><g><svg></svg></g><g><svg viewBox="0 0 395.52 247.2" height="247.2" width="395.52"><mask id="60a6ba40-c128-446e-a185-c3e884930a96"><rect width="395.52" height="247.2" fill="white"></rect><g transform="matrix(1,0,0,1,0,41.6874726466892)" id="clone"><svg viewBox="0 0 395.52 163.8250547066216" height="163.8250547066216" width="395.52"><g><svg viewBox="0 0 395.52 163.8250547066216" height="163.8250547066216" width="395.52"><g><svg viewBox="0 0 395.52 163.8250547066216" height="163.8250547066216" width="395.52"><g><svg viewBox="0 0 395.52 163.8250547066216" height="163.8250547066216" width="395.52"><g id="SvgjsG1098"><svg viewBox="0 0 395.52 163.8250547066216" height="163.8250547066216" width="395.52" id="SvgjsSvg1097"><g><svg viewBox="0 0 395.52 109.67165267450225" height="109.67165267450225" width="395.52"><g transform="matrix(1,0,0,1,0,0)"><svg width="395.52" viewBox="-1.5 -40 209.42999267578125 58.79999923706055" height="109.67165267450225" data-palette-color="#fa4238"><path d="M65.85-29.3L65.85-29.3Q68.95-29.3 68.95-30.8L68.95-30.8Q68.95-31.55 69.48-31.55 70-31.55 70-30.33 70-29.1 68.6-28.45 67.2-27.8 66.13-27.8 65.05-27.8 64.35-27.9L64.35-27.9Q57-28.85 51.75-31.1L51.75-31.1Q48.2-25.5 45.4-16.2L45.4-16.2Q44.35-12.85 42.43-8.95 40.5-5.05 38.27-2.53 36.05 0 33.15 1.6L33.15 1.6Q27.45 4.7 19.7 4.7L19.7 4.7Q13.4 4.7 7.9 1.6L7.9 1.6Q2.5-1.45 1.6-7.8L1.6-7.8Q1.5-8.65 1.5-10.33 1.5-12 2.48-15.1 3.45-18.2 6.15-19.8L6.15-19.8Q7.25-20.45 7.8-20.45L7.8-20.45Q8.7-20.45 8.6-19.6L8.6-19.6Q8.4-19.35 7.58-18.78 6.75-18.2 6-17.57 5.25-16.95 4.5-15.65L4.5-15.65Q3.2-13.45 3.2-10.7L3.2-10.7Q3.2-4.4 7.5-1L7.5-1Q9.8 0.9 12.65 1.9 15.5 2.9 18.35 2.9L18.35 2.9Q18.45 2.9 18.6 2.9L18.6 2.9Q28.95 2.65 35.6-4.6L35.6-4.6Q39.8-9.15 47.1-25.15L47.1-25.15Q49.6-30.65 50.3-31.6L50.3-31.6Q41.45-34.4 34.4-34.4 27.35-34.4 22.95-30.15L22.95-30.15Q19.4-26.75 19.4-23.05L19.4-23.05Q19.4-19 22.95-17.9L22.95-17.9Q24.2-17.55 25.23-17.55 26.25-17.55 27.58-17.93 28.9-18.3 30.13-19.48 31.35-20.65 31.98-21.8 32.6-22.95 32.5-23.55L32.5-23.55 32.5-23.65Q32.9-24 33.2-23.88 33.5-23.75 33.5-23.25L33.5-23.25Q33-19.35 29.55-17.4L29.55-17.4Q27.45-16.15 25.65-16.15 23.85-16.15 22.45-16.65L22.45-16.65Q18.35-18.1 17.25-22.2L17.25-22.2Q16.9-23.5 16.9-24.75L16.9-24.75Q16.9-27.75 18.75-30.6L18.75-30.6Q22.05-35.7 29.1-36.75L29.1-36.75Q30.7-37 32.15-37 33.6-37 35.52-36.85 37.45-36.7 40.63-35.85 43.8-35 47.13-33.88 50.45-32.75 51.1-32.55L51.1-32.55Q53.55-35.55 54.75-35.6L54.75-35.6Q55-35.7 55.43-35.7 55.85-35.7 56.1-35 56.35-34.3 55.75-34.1L55.75-34.1Q55.5-34.05 55.1-34.15L55.1-34.15Q54.8-34.35 53.88-33.52 52.95-32.7 52.5-32.15L52.5-32.15Q57.2-30.65 60.75-29.98 64.3-29.3 65.85-29.3ZM47-2.9L47-2.9Q47-5.05 48.85-8.1L48.85-8.1Q48.05-8.1 48.4-8.9L48.4-8.9 49.3-10.65Q51-13.9 52.1-16.15L52.1-16.15Q52.6-17.2 54.05-17.2L54.05-17.2 57.1-17.2Q55.3-15.9 53.47-12.18 51.65-8.45 50.65-6.33 49.65-4.2 49.65-3.1 49.65-2 50.02-1.55 50.4-1.1 51.05-1.1L51.05-1.1Q52-1.1 53.7-3.1L53.7-3.1Q56.35-6.2 61.15-16.15L61.15-16.15Q61.7-17.2 63.1-17.2L63.1-17.2 65.8-17.2Q64.7-16.35 64.07-15.45 63.45-14.55 62.35-12.25L62.35-12.25Q59.35-6.25 59-4.3L59-4.3Q58.85-3.6 58.85-3L58.85-3Q58.85-1.4 59.95-1.3L59.95-1.3Q62.65-1.3 66.6-9.65L66.6-9.65Q66.9-10.35 67.2-10.2 67.5-10.05 67.5-9.8 67.5-9.55 67.05-8.65 66.6-7.75 66.17-6.9 65.75-6.05 64.87-4.58 64-3.1 63.25-2.25L63.25-2.25Q61.3-0.05 59.42-0.05 57.55-0.05 56.85-1.7L56.85-1.7Q56.55-2.45 56.55-3.6 56.55-4.75 57.05-6.45L57.05-6.45Q53.4-0.05 50.3-0.05L50.3-0.05Q47.6-0.05 47.15-2.3L47.15-2.3Q47-2.55 47-2.9ZM81.8-13.55Q80.9-12.65 79.25-9.47 77.6-6.3 77.27-4.73 76.95-3.15 76.95-2.18 76.95-1.2 77.7-1.2L77.7-1.2Q78.65-1.2 80.05-2.95L80.05-2.95Q82.1-5.5 84.1-9.6L84.1-9.6Q84.3-10.05 84.55-10.1L84.55-10.1Q84.95-10.25 84.95-9.8L84.95-9.8Q84.95-9.55 84.8-9.2L84.8-9.2Q80.2 0.1 77.05 0.1L77.05 0.1Q75.6 0.1 74.7-1.3L74.7-1.3Q74.25-2.05 74.25-3.3 74.25-4.55 74.75-6.35L74.75-6.35Q70.75 0.1 67.85 0.1L67.85 0.1Q67.05 0.1 66.4-0.4L66.4-0.4Q64.9-1.45 64.9-4L64.9-4Q64.9-8.9 69.15-13.95L69.15-13.95Q71.55-16.75 75.05-17.6L75.05-17.6Q76-17.85 76.85-17.85L76.85-17.85Q79.15-17.85 80.75-16.25L80.75-16.25Q81.25-15.7 81.05-15.2 80.85-14.7 80.2-14.8L80.2-14.8Q79.65-16.6 77.8-16.6L77.8-16.6Q75.65-16.6 72.5-13.2L72.5-13.2Q70.7-11.2 69.15-8.5L69.15-8.5Q67.2-5.25 67.2-3.3 67.2-1.35 68.45-1.35L68.45-1.35Q71.45-1.35 76.3-10.55L76.3-10.55Q77.25-12.4 77.9-13.08 78.55-13.75 79.55-13.75L79.55-13.75Q79.75-13.75 80.57-13.6 81.4-13.45 81.8-13.55L81.8-13.55ZM99.19-16.4L99.19-16.4Q93.04-5.6 93.04-2.3L93.04-2.3Q93.04-1 93.99-1L93.99-1Q96.54-1 100.84-9.65L100.84-9.65Q101.14-10.35 101.44-10.2 101.74-10.05 101.74-9.8 101.74-9.55 101.54-9.2L101.54-9.2Q98.89-3.85 97.07-1.83 95.24 0.2 93.42 0.2 91.59 0.2 90.64-1.2L90.64-1.2Q90.14-1.85 90.14-2.98 90.14-4.1 90.64-5.7 91.14-7.3 93.39-10.9L93.39-10.9Q93.94-11.8 93.94-12.33 93.94-12.85 93.09-12.85 92.24-12.85 89.84-10.6L89.84-10.6Q86.24-7.3 82.89-0.7L82.89-0.7Q82.59-0.2 82.22-0.08 81.84 0.05 80.74 0.1 79.64 0.15 79.29 0.35L79.29 0.35Q80.09-1.25 82.44-6.2L82.44-6.2Q86.64-14.95 87.94-16.2L87.94-16.2Q88.54-16.8 89.59-16.8L89.59-16.8Q89.79-16.8 90.62-16.65 91.44-16.5 91.84-16.6L91.84-16.6Q89.99-15.6 85.79-7.2L85.79-7.2Q88.14-10.1 90.07-11.83 91.99-13.55 94.69-15.03 97.39-16.5 98.64-16.5L98.64-16.5Q98.94-16.5 99.19-16.4ZM115.94-16.4L115.94-16.4Q109.79-5.6 109.79-2.3L109.79-2.3Q109.79-1 110.74-1L110.74-1Q113.29-1 117.59-9.65L117.59-9.65Q117.89-10.35 118.19-10.2 118.49-10.05 118.49-9.8 118.49-9.55 118.29-9.2L118.29-9.2Q115.64-3.85 113.82-1.83 111.99 0.2 110.17 0.2 108.34 0.2 107.39-1.2L107.39-1.2Q106.89-1.85 106.89-2.98 106.89-4.1 107.39-5.7 107.89-7.3 110.14-10.9L110.14-10.9Q110.69-11.8 110.69-12.33 110.69-12.85 109.84-12.85 108.99-12.85 106.59-10.6L106.59-10.6Q102.99-7.3 99.64-0.7L99.64-0.7Q99.34-0.2 98.97-0.08 98.59 0.05 97.49 0.1 96.39 0.15 96.04 0.35L96.04 0.35Q96.84-1.25 99.19-6.2L99.19-6.2Q103.39-14.95 104.69-16.2L104.69-16.2Q105.29-16.8 106.34-16.8L106.34-16.8Q106.54-16.8 107.37-16.65 108.19-16.5 108.59-16.6L108.59-16.6Q106.74-15.6 102.54-7.2L102.54-7.2Q104.89-10.1 106.82-11.83 108.74-13.55 111.44-15.03 114.14-16.5 115.39-16.5L115.39-16.5Q115.69-16.5 115.94-16.4ZM114.14 15.8L114.14 15.8Q109.44 15.8 109.44 11.95L109.44 11.95Q109.44 8.75 113.79 6.2L113.79 6.2Q117.49 4.05 123.24 2.15L123.24 2.15Q125.89 1.3 127.09 0.8L127.09 0.8Q128.39-3 128.39-7.5L128.39-7.5Q128.39-8.4 128.29-8.85L128.29-8.85Q126.89-6 124.44-3L124.44-3Q121.54 0.6 118.69-0.2L118.69-0.2Q116.09-1.3 116.09-4.5L116.09-4.5Q116.09-8.8 120.39-13.95L120.39-13.95Q122.74-16.75 125.89-17.5L125.89-17.5Q126.74-17.75 127.59-17.75L127.59-17.75Q129.84-17.75 131.99-16.25L131.99-16.25Q132.79-15.6 132.79-15.15 132.79-14.7 132.49-14.28 132.19-13.85 131.86-14.18 131.54-14.5 131.44-14.8L131.44-14.8Q130.79-16.65 129.34-16.65L129.34-16.65Q126.69-16.65 123.39-12.95L123.39-12.95Q121.54-10.85 120.19-8.45L120.19-8.45Q118.54-5.45 118.54-3.83 118.54-2.2 119.54-1.65L119.54-1.65Q119.89-1.5 120.24-1.5L120.24-1.5Q121.39-1.5 123.11-3.08 124.84-4.65 126.31-7.08 127.79-9.5 128.19-10.85 128.59-12.2 129.16-12.55 129.74-12.9 130.44-12.95 131.14-13 131.39-13.2L131.39-13.2Q131.79-10.95 131.79-7.93 131.79-4.9 130.74-1.05L130.74-1.05Q133.04-2.7 134.01-4 134.99-5.3 135.56-6.35 136.14-7.4 136.59-8.43 137.04-9.45 137.19-9.75 137.34-10.05 137.69-10.13 138.04-10.2 138.04-9.8L138.04-9.8Q138.04-9.55 137.89-9.2L137.89-9.2Q135.69-4.65 134.21-2.63 132.74-0.6 130.19 0.6L130.19 0.6Q128.99 4 126.71 7.35 124.44 10.7 120.99 13.25 117.54 15.8 114.14 15.8ZM110.49 12.9L110.49 12.9Q110.49 14.8 112.94 14.8L112.94 14.8Q114.39 14.8 116.21 13.95 118.04 13.1 119.24 12.2L119.24 12.2Q121.29 10.55 123.74 7.3L123.74 7.3Q125.59 4.7 126.59 2.25L126.59 2.25 124.84 2.85Q117.04 5.55 113.84 7.65L113.84 7.65Q111.49 9.2 110.74 11.6L110.74 11.6Q110.49 12.35 110.49 12.9ZM135.44-2.9L135.44-2.9Q135.44-5.05 137.28-8.1L137.28-8.1Q136.49-8.1 136.84-8.9L136.84-8.9 137.74-10.65Q139.44-13.9 140.53-16.15L140.53-16.15Q141.03-17.2 142.49-17.2L142.49-17.2 145.53-17.2Q143.74-15.9 141.91-12.18 140.09-8.45 139.09-6.33 138.09-4.2 138.09-3.1 138.09-2 138.46-1.55 138.84-1.1 139.49-1.1L139.49-1.1Q140.44-1.1 142.14-3.1L142.14-3.1Q144.78-6.2 149.59-16.15L149.59-16.15Q150.14-17.2 151.53-17.2L151.53-17.2 154.24-17.2Q153.14-16.35 152.51-15.45 151.89-14.55 150.78-12.25L150.78-12.25Q147.78-6.25 147.44-4.3L147.44-4.3Q147.28-3.6 147.28-3L147.28-3Q147.28-1.4 148.39-1.3L148.39-1.3Q151.09-1.3 155.04-9.65L155.04-9.65Q155.34-10.35 155.64-10.2 155.94-10.05 155.94-9.8 155.94-9.55 155.49-8.65 155.04-7.75 154.61-6.9 154.19-6.05 153.31-4.58 152.44-3.1 151.69-2.25L151.69-2.25Q149.74-0.05 147.86-0.05 145.99-0.05 145.28-1.7L145.28-1.7Q144.99-2.45 144.99-3.6 144.99-4.75 145.49-6.45L145.49-6.45Q141.84-0.05 138.74-0.05L138.74-0.05Q136.03-0.05 135.59-2.3L135.59-2.3Q135.44-2.55 135.44-2.9ZM148.08 15.8L148.08 15.8Q145.88 15.8 144.68 14.88 143.48 13.95 143.48 12.65 143.48 11.35 144.23 9.7L144.23 9.7Q145.53 7.15 148.93 5.6L148.93 5.6Q151.48 4.4 155.68 3.38 159.88 2.35 161.08 2L161.08 2Q162.88-1.15 165.38-9.25L165.38-9.25Q162.48-4.15 160.53-2.1 158.58-0.05 156.58-0.05L156.58-0.05Q153.88-0.05 153.43-2.3L153.43-2.3Q153.23-2.65 153.33-3.35 153.43-4.05 153.46-4.35 153.48-4.65 153.78-5.33 154.08-6 154.18-6.3L154.18-6.3Q154.73-7.45 155.13-8.1L155.13-8.1Q154.33-8.1 154.68-8.9L154.68-8.9 155.58-10.65Q157.28-13.9 158.38-16.15L158.38-16.15Q158.88-17.2 160.33-17.2L160.33-17.2 163.38-17.2Q163.28-17.1 162.88-16.8L162.88-16.8Q161.98-16.2 161.53-15.4L161.53-15.4Q159.73-12.3 157.03-6.55L157.03-6.55Q155.93-4.2 155.93-3.1 155.93-2 156.31-1.55 156.68-1.1 157.33-1.1L157.33-1.1Q158.28-1.1 159.98-3.1L159.98-3.1Q163.53-7.25 167.83-16.15L167.83-16.15Q168.38-17.2 169.78-17.2L169.78-17.2 172.48-17.2Q171.18-16.3 170.43-14.93 169.68-13.55 168.81-11.2 167.93-8.85 166.61-4.95 165.28-1.05 164.58 0.9L164.58 0.9Q169.28-0.5 171.78-4.05L171.78-4.05Q172.88-5.6 174.93-9.55L174.93-9.55Q175.28-10.25 175.56-10.1 175.83-9.95 175.83-9.7 175.83-9.45 175.01-7.78 174.18-6.1 173.33-4.67 172.48-3.25 171.13-1.75 169.78-0.25 168.13 0.63 166.48 1.5 163.73 2.5L163.73 2.5Q159.88 9.5 155.98 12.8L155.98 12.8Q152.33 15.8 148.08 15.8ZM145.18 10.85L145.18 10.85Q144.63 11.95 144.63 12.88 144.63 13.8 145.33 14.3 146.03 14.8 147.08 14.8L147.08 14.8Q149.98 14.8 153.28 11.83 156.58 8.85 159.08 5.45L159.08 5.45 160.18 3.6Q151.93 5.75 149.78 6.7L149.78 6.7Q146.58 8.1 145.18 10.85ZM177.18-7.7L177.18-7.7Q176.48-6 176.48-3.9L176.48-3.9Q176.48-2.5 177.1-1.68 177.73-0.85 178.88-0.85L178.88-0.85Q183.43-0.85 187.13-9.4L187.13-9.4Q187.48-10.2 187.98-10.1L187.98-10.1Q188.18-10.05 188.18-9.85 188.18-9.65 187.06-7.23 185.93-4.8 184.78-3.3L184.78-3.3Q182.23 0.2 178.48 0.2L178.48 0.2Q176.48 0.2 175.08-1.1 173.68-2.4 173.68-4.65 173.68-6.9 174.75-9.43 175.83-11.95 177.68-14.13 179.53-16.3 181.93-17.3L181.93-17.3Q183.08-17.8 184.13-17.8 185.18-17.8 186.08-17.2L186.08-17.2Q186.93-16.5 186.93-15.65L186.93-15.65Q186.93-12.65 183.33-9.9L183.33-9.9Q182.23-9.05 180.23-8.38 178.23-7.7 177.18-7.7ZM185.58-15.7L185.58-15.7Q185.58-16.7 184.78-16.7L184.78-16.7Q183.38-16.7 180.53-13.25L180.53-13.25Q178.83-11.15 177.53-8.55L177.53-8.55Q178.38-8.55 180-9.15 181.63-9.75 182.83-10.75L182.83-10.75Q185.58-13.1 185.58-15.7ZM202.38-16.4L202.38-16.4Q196.23-5.6 196.23-2.3L196.23-2.3Q196.23-1 197.18-1L197.18-1Q199.73-1 204.03-9.65L204.03-9.65Q204.33-10.35 204.63-10.2 204.93-10.05 204.93-9.8 204.93-9.55 204.73-9.2L204.73-9.2Q202.08-3.85 200.25-1.83 198.43 0.2 196.6 0.2 194.78 0.2 193.83-1.2L193.83-1.2Q193.33-1.85 193.33-2.98 193.33-4.1 193.83-5.7 194.33-7.3 196.58-10.9L196.58-10.9Q197.13-11.8 197.13-12.33 197.13-12.85 196.28-12.85 195.43-12.85 193.03-10.6L193.03-10.6Q189.43-7.3 186.08-0.7L186.08-0.7Q185.78-0.2 185.4-0.08 185.03 0.05 183.93 0.1 182.83 0.15 182.48 0.35L182.48 0.35Q183.28-1.25 185.63-6.2L185.63-6.2Q189.83-14.95 191.13-16.2L191.13-16.2Q191.73-16.8 192.78-16.8L192.78-16.8Q192.98-16.8 193.8-16.65 194.63-16.5 195.03-16.6L195.03-16.6Q193.18-15.6 188.98-7.2L188.98-7.2Q191.33-10.1 193.25-11.83 195.18-13.55 197.88-15.03 200.58-16.5 201.83-16.5L201.83-16.5Q202.13-16.5 202.38-16.4Z" opacity="1" transform="matrix(1,0,0,1,0,0)" fill="black" class="wordmark-text-0" id="SvgjsPath1096" stroke-width="5" stroke="black" stroke-linejoin="round"></path></svg></g></svg></g><g transform="matrix(1,0,0,1,2.5,124.29097353487164)"><svg viewBox="0 0 390.52 39.534081171749946" height="39.534081171749946" width="390.52"><g transform="matrix(1,0,0,1,0,0)"><svg width="390.52" viewBox="-1.4900000095367432 -41.33000183105469 446.3800048828125 46.09000015258789" height="39.534081171749946" data-palette-color="#fa4238"><path d="M24.12-26.17L24.12-26.17Q24.12-23.54 22.97-21 21.83-18.46 19.92-16.43 18.02-14.4 15.58-13.11 13.13-11.82 10.55-11.67L10.55-11.67Q10.5-10.79 10.47-9.45 10.45-8.11 10.3-6.64 10.16-5.18 9.89-3.71 9.62-2.25 9.11-1.07 8.59 0.1 7.79 0.83 6.98 1.56 5.81 1.56L5.81 1.56Q4.44 1.56 3.64 0.66 2.83-0.24 2.42-1.51 2-2.78 1.86-4.17 1.71-5.57 1.66-6.54L1.66-6.54Q1.56-7.96 1.54-9.33 1.51-10.69 1.51-12.11L1.51-12.11Q1.51-12.74 1.51-14.48 1.51-16.21 1.54-18.43 1.56-20.65 1.61-23.07 1.66-25.49 1.76-27.56 1.86-29.64 1.98-31.1 2.1-32.57 2.29-32.81L2.29-32.81Q2.34-32.86 2.59-33.03 2.83-33.2 3.13-33.37 3.42-33.54 3.66-33.69 3.91-33.84 4-33.89L4-33.89Q6.25-35.16 8.94-36.08 11.62-37.01 14.26-37.01L14.26-37.01Q16.5-37.01 18.33-36.11 20.17-35.21 21.46-33.72 22.75-32.23 23.44-30.25 24.12-28.27 24.12-26.17ZM15.67-25.05L15.67-25.05Q15.67-26.03 15.21-26.76 14.75-27.49 13.67-27.49L13.67-27.49Q12.74-27.49 11.82-27.12 10.89-26.76 10.11-26.37L10.11-26.37Q10.25-24.66 10.38-23.05 10.5-21.44 10.4-19.73L10.4-19.73Q11.18-20.12 12.11-20.63 13.04-21.14 13.82-21.78 14.6-22.41 15.14-23.22 15.67-24.02 15.67-25.05ZM42.24-18.26L42.24-18.26Q41.55-18.21 41.06-18.38 40.58-18.55 40.09-18.75L40.09-18.75Q39.65-18.95 39.21-19.12 38.77-19.29 38.23-19.24L38.23-19.24Q37.26-19.19 36.5-18.7 35.74-18.21 35.13-17.48 34.52-16.75 34.08-15.84 33.64-14.94 33.4-14.06L33.4-14.06Q33.25-13.48 33.18-12.28 33.11-11.08 33.11-9.72L33.11-9.72Q33.06-8.3 33.06-7.03 33.06-5.76 32.96-5.03L32.96-5.03Q32.91-4.25 32.71-3.2 32.52-2.15 32.1-1.22 31.69-0.29 31.01 0.34 30.32 0.98 29.25 0.98L29.25 0.98Q28.42 0.98 27.81 0.49 27.2 0 26.78-0.81 26.37-1.61 26.1-2.69 25.83-3.76 25.68-4.88L25.68-4.88Q25.54-6.05 25.46-7.23 25.39-8.4 25.37-9.45 25.34-10.5 25.37-11.38 25.39-12.26 25.39-12.79L25.39-12.79Q25.34-14.5 25.22-16.24 25.1-17.97 25.1-19.68L25.1-19.68Q25.1-20.75 25.2-22.07 25.29-23.39 25.73-24.54 26.17-25.68 27.03-26.46 27.88-27.25 29.39-27.25L29.39-27.25Q30.22-27.25 30.81-26.71 31.4-26.17 31.76-25.39 32.13-24.61 32.32-23.73 32.52-22.85 32.57-22.12L32.57-22.12Q33.74-24.02 35.21-25.22 36.67-26.42 39.01-26.51L39.01-26.51Q40.19-26.56 41.33-26.29 42.48-26.03 43.43-25.42 44.38-24.8 45-23.83 45.61-22.85 45.65-21.53L45.65-21.53Q45.75-19.97 44.73-19.14 43.7-18.31 42.24-18.26ZM67.14-6.88L67.14-6.88Q67.14-6.01 67.07-4.59 66.99-3.17 66.65-1.83 66.31-0.49 65.58 0.49 64.84 1.46 63.53 1.46L63.53 1.46Q61.72 1.46 60.74 0.29 59.77-0.88 59.81-2.64L59.81-2.64Q58.25-1.27 56.27-0.49 54.3 0.29 52.25 0.29L52.25 0.29Q50.83 0.29 49.56-0.39 48.29-1.07 47.31-2.15 46.34-3.22 45.75-4.57 45.17-5.91 45.17-7.23L45.17-7.23Q45.17-9.57 46.61-11.33 48.05-13.09 50.15-14.33 52.25-15.58 54.61-16.31 56.98-17.04 58.84-17.29L58.84-17.29Q58.84-17.53 58.86-17.72 58.89-17.92 58.89-18.16L58.89-18.16Q58.89-19.68 58.06-20.61 57.23-21.53 55.71-21.53L55.71-21.53Q54.49-21.53 53.61-21.12 52.73-20.7 51.95-20.19 51.17-19.68 50.39-19.26 49.61-18.85 48.63-18.85L48.63-18.85Q47.56-18.85 46.8-19.53 46.04-20.21 46.04-21.29L46.04-21.29Q46.04-22.9 47-24.22 47.95-25.54 49.39-26.44 50.83-27.34 52.51-27.86 54.2-28.37 55.62-28.37L55.62-28.37Q56.93-28.37 58.25-28.05 59.57-27.73 60.74-27.08 61.91-26.42 62.87-25.46 63.82-24.51 64.4-23.24L64.4-23.24Q65.28-21.44 65.82-19.41 66.36-17.38 66.65-15.26 66.94-13.13 67.04-11.01 67.14-8.89 67.14-6.88ZM59.33-8.45L59.33-8.45 59.18-11.77Q59.08-11.77 58.98-11.79 58.89-11.82 58.79-11.82L58.79-11.82Q58.15-11.82 57.2-11.5 56.25-11.18 55.37-10.62 54.49-10.06 53.88-9.38 53.27-8.69 53.27-7.96L53.27-7.96Q53.27-7.28 53.76-7.03 54.25-6.79 54.88-6.79L54.88-6.79Q55.96-6.79 57.18-7.35 58.4-7.91 59.33-8.45ZM88.18-18.75L88.18-18.75Q88.18-18.51 88.13-18.24 88.09-17.97 87.99-17.72L87.99-17.72Q87.55-16.6 86.62-15.84 85.69-15.09 84.42-15.09L84.42-15.09Q82.52-15.09 81.84-16.99L81.84-16.99Q81.74-17.24 81.74-17.55 81.74-17.87 81.69-18.21L81.69-18.21 81.69-19.63Q81.59-20.31 81.35-20.7 81.1-21.09 80.52-21.09L80.52-21.09Q79.69-21.09 78.93-20.04 78.17-18.99 77.61-17.55 77.05-16.11 76.71-14.6 76.37-13.09 76.37-12.16L76.37-12.16Q76.37-11.43 76.46-10.38 76.56-9.33 76.86-8.35 77.15-7.37 77.66-6.67 78.17-5.96 79-5.96L79-5.96Q79.83-5.96 80.54-6.47 81.25-6.98 81.93-7.67L81.93-7.67Q82.57-8.25 83.33-8.89 84.08-9.52 85.06-9.52L85.06-9.52Q86.28-9.52 86.99-8.64 87.7-7.76 87.7-6.64L87.7-6.64Q87.7-4.98 86.82-3.54 85.94-2.1 84.62-1.05 83.3 0 81.69 0.61 80.08 1.22 78.61 1.22L78.61 1.22Q75.98 1.22 74.15-0.1 72.31-1.42 71.19-3.44 70.07-5.47 69.58-7.86 69.09-10.25 69.09-12.4L69.09-12.4Q69.09-14.89 69.78-17.8 70.46-20.7 71.88-23.19 73.29-25.68 75.51-27.34 77.73-29 80.81-29L80.81-29Q82.71-29 84.11-28.17 85.5-27.34 86.4-26 87.3-24.66 87.77-23 88.23-21.34 88.23-19.73L88.23-19.73Q88.23-19.48 88.23-19.24 88.23-18.99 88.18-18.75ZM102.29 1.76L102.29 1.76Q98.83 1.76 96.9 0.85 94.97-0.05 94.02-1.71 93.07-3.37 92.87-5.71 92.68-8.06 92.68-10.94L92.68-10.94Q92.68-13.23 92.82-15.55 92.97-17.87 93.26-20.51L93.26-20.51Q92.58-20.51 92.19-20.48 91.8-20.46 91.55-20.46L91.55-20.46Q89.99-20.46 88.84-21.14 87.7-21.83 87.7-23.24L87.7-23.24Q87.7-24.12 88.35-24.8 89.01-25.49 90.04-25.98 91.06-26.46 92.26-26.76 93.46-27.05 94.53-27.15L94.53-27.15Q94.53-28.52 94.73-30.18 94.92-31.84 95.43-33.28 95.95-34.72 96.83-35.69 97.71-36.67 99.07-36.67L99.07-36.67Q99.85-36.67 100.46-36.21 101.07-35.74 101.46-35.03 101.86-34.33 102.05-33.45 102.25-32.57 102.25-31.74L102.25-31.74Q102.25-30.76 102.1-29.74 101.95-28.71 101.56-27.2L101.56-27.2Q102.39-27.29 102.69-27.32 102.98-27.34 103.22-27.34L103.22-27.34Q104.05-27.34 104.96-27.2 105.86-27.05 106.62-26.71 107.37-26.37 107.86-25.81 108.35-25.24 108.35-24.46L108.35-24.46Q108.35-23.58 107.64-22.9 106.93-22.22 105.86-21.73 104.79-21.24 103.56-20.97 102.34-20.7 101.27-20.61L101.27-20.61Q100.98-18.6 100.85-16.92 100.73-15.23 100.59-13.53L100.59-13.53Q100.49-12.7 100.42-11.84 100.34-10.99 100.34-10.11L100.34-10.11Q100.34-9.47 100.39-8.62 100.44-7.76 100.73-6.98 101.03-6.2 101.66-5.64 102.29-5.08 103.42-5.08L103.42-5.08Q104.1-5.08 104.83-5.2 105.57-5.32 106.3-5.32L106.3-5.32Q107.57-5.32 108.13-4.44 108.69-3.56 108.69-2.2L108.69-2.2Q108.69-1.17 108.08-0.42 107.47 0.34 106.54 0.81 105.62 1.27 104.47 1.51 103.32 1.76 102.29 1.76ZM117.72-34.08L117.72-34.08Q117.72-33.4 117.36-32.86 116.99-32.32 116.41-31.91 115.82-31.49 115.14-31.27 114.45-31.05 113.87-31.05L113.87-31.05Q112.89-31.05 112.16-31.54 111.43-32.03 111.43-33.06L111.43-33.06Q111.43-33.79 111.79-34.35 112.16-34.91 112.7-35.28 113.23-35.64 113.92-35.84 114.6-36.04 115.23-36.04L115.23-36.04Q116.16-36.04 116.94-35.6 117.72-35.16 117.72-34.08ZM118.12-17.48L118.12-17.48Q118.12-16.8 118.12-16.04 118.12-15.28 118.07-14.6L118.07-14.6Q118.02-13.77 118.02-12.38 118.02-10.99 117.92-9.38 117.82-7.76 117.6-6.1 117.38-4.44 116.89-3.08 116.41-1.71 115.6-0.85 114.79 0 113.57 0.05L113.57 0.05Q112.65 0.1 112.01-0.68 111.38-1.46 110.96-2.71 110.55-3.96 110.35-5.49 110.16-7.03 110.06-8.47 109.96-9.91 109.96-11.13 109.96-12.35 109.96-12.94L109.96-12.94Q109.96-13.72 109.96-15.16 109.96-16.6 110.06-18.26 110.16-19.92 110.42-21.63 110.69-23.34 111.21-24.76 111.72-26.17 112.55-27.05 113.38-27.93 114.65-27.93L114.65-27.93Q115.97-27.93 116.65-26.61 117.33-25.29 117.68-23.54 118.02-21.78 118.07-20.04 118.12-18.31 118.12-17.48ZM139.7-18.75L139.7-18.75Q139.7-18.51 139.65-18.24 139.6-17.97 139.5-17.72L139.5-17.72Q139.06-16.6 138.13-15.84 137.21-15.09 135.94-15.09L135.94-15.09Q134.03-15.09 133.35-16.99L133.35-16.99Q133.25-17.24 133.25-17.55 133.25-17.87 133.2-18.21L133.2-18.21 133.2-19.63Q133.11-20.31 132.86-20.7 132.62-21.09 132.03-21.09L132.03-21.09Q131.2-21.09 130.44-20.04 129.69-18.99 129.13-17.55 128.56-16.11 128.22-14.6 127.88-13.09 127.88-12.16L127.88-12.16Q127.88-11.43 127.98-10.38 128.08-9.33 128.37-8.35 128.66-7.37 129.17-6.67 129.69-5.96 130.52-5.96L130.52-5.96Q131.35-5.96 132.06-6.47 132.76-6.98 133.45-7.67L133.45-7.67Q134.08-8.25 134.84-8.89 135.6-9.52 136.57-9.52L136.57-9.52Q137.79-9.52 138.5-8.64 139.21-7.76 139.21-6.64L139.21-6.64Q139.21-4.98 138.33-3.54 137.45-2.1 136.13-1.05 134.81 0 133.2 0.61 131.59 1.22 130.13 1.22L130.13 1.22Q127.49 1.22 125.66-0.1 123.83-1.42 122.71-3.44 121.58-5.47 121.09-7.86 120.61-10.25 120.61-12.4L120.61-12.4Q120.61-14.89 121.29-17.8 121.97-20.7 123.39-23.19 124.8-25.68 127.03-27.34 129.25-29 132.32-29L132.32-29Q134.23-29 135.62-28.17 137.01-27.34 137.92-26 138.82-24.66 139.28-23 139.75-21.34 139.75-19.73L139.75-19.73Q139.75-19.48 139.75-19.24 139.75-18.99 139.7-18.75ZM162.89-8.69L162.89-8.69Q162.89-7.03 161.84-5.44 160.79-3.86 159.2-2.61 157.62-1.37 155.81-0.61 154 0.15 152.49 0.15L152.49 0.15Q149.9 0.15 147.88-1.15 145.85-2.44 144.48-4.44 143.12-6.45 142.41-8.86 141.7-11.28 141.7-13.57L141.7-13.57Q141.7-16.02 142.38-18.8 143.07-21.58 144.46-23.93 145.85-26.27 147.97-27.83 150.1-29.39 153.03-29.39L153.03-29.39Q154.69-29.39 156.2-28.83 157.71-28.27 158.84-27.25 159.96-26.22 160.64-24.8 161.33-23.39 161.33-21.63L161.33-21.63Q161.33-19.34 160.35-17.33 159.38-15.33 157.76-13.87 156.15-12.4 154.05-11.5 151.95-10.6 149.76-10.5L149.76-10.5Q149.95-9.08 150.9-8.45 151.86-7.81 153.17-7.81L153.17-7.81Q154.15-7.81 155.08-8.3 156.01-8.79 156.88-9.4 157.76-10.01 158.62-10.5 159.47-10.99 160.35-10.99L160.35-10.99Q161.33-10.99 162.11-10.35 162.89-9.72 162.89-8.69ZM154.98-20.65L154.98-20.65Q154.98-21.29 154.64-21.97 154.3-22.66 153.56-22.66L153.56-22.66Q152.49-22.66 151.76-22.09 151.03-21.53 150.54-20.68 150.05-19.82 149.78-18.85 149.51-17.87 149.46-17.04L149.46-17.04Q150.15-17.19 151.1-17.43 152.05-17.68 152.91-18.09 153.76-18.51 154.37-19.14 154.98-19.78 154.98-20.65ZM210.01-5.32L210.01-5.32Q209.86-4.05 209.59-2.83 209.33-1.61 208.94-0.66 208.54 0.29 207.93 0.85 207.32 1.42 206.54 1.42L206.54 1.42Q205.76 1.42 205.13 0.22 204.49-0.98 203.93-2.95 203.37-4.93 202.91-7.42 202.44-9.91 202.08-12.48 201.71-15.04 201.46-17.48 201.22-19.92 201.07-21.73L201.07-21.73Q200.78-19.87 200.39-17.58 200-15.28 199.46-12.92 198.93-10.55 198.29-8.28 197.66-6.01 196.92-4.22 196.19-2.44 195.36-1.37 194.53-0.29 193.6-0.29L193.6-0.29Q192.77-0.29 191.94-1.42 191.11-2.54 190.33-4.37 189.55-6.2 188.87-8.45 188.18-10.69 187.6-12.96 187.01-15.23 186.57-17.26 186.13-19.29 185.89-20.65L185.89-20.65Q185.89-19.63 185.86-18.38 185.84-17.14 185.84-16.6L185.84-16.6Q185.84-16.36 185.82-14.99 185.79-13.62 185.64-11.72 185.5-9.81 185.21-7.64 184.91-5.47 184.35-3.61 183.79-1.76 182.96-0.49 182.13 0.78 180.91 0.88L180.91 0.88Q179.93 0.44 179.27-0.61 178.61-1.66 178.17-3.08 177.73-4.49 177.49-6.1 177.25-7.71 177.1-9.25 176.95-10.79 176.93-12.11 176.9-13.43 176.9-14.26L176.9-14.26Q176.9-15.72 177.08-17.94 177.25-20.17 177.64-22.61 178.03-25.05 178.66-27.49 179.3-29.93 180.2-31.86 181.1-33.79 182.3-35.01 183.5-36.23 185.06-36.23L185.06-36.23Q185.79-36.23 186.62-35.4 187.45-34.57 188.28-33.23 189.11-31.88 189.89-30.22 190.67-28.56 191.38-26.88 192.09-25.2 192.63-23.66 193.16-22.12 193.51-21.04L193.51-21.04Q193.9-22.22 194.48-23.78 195.07-25.34 195.78-27.03 196.48-28.71 197.34-30.35 198.19-31.98 199.12-33.28 200.05-34.57 201-35.38 201.95-36.18 202.93-36.18L202.93-36.18Q204.64-36.18 205.86-34.91 207.08-33.64 207.91-31.62 208.74-29.59 209.23-27.08 209.72-24.56 209.99-22.09 210.25-19.63 210.33-17.48 210.4-15.33 210.4-14.01L210.4-14.01Q210.4-13.48 210.4-12.55 210.4-11.62 210.38-10.45 210.35-9.28 210.25-7.96 210.16-6.64 210.01-5.32ZM234.62-6.88L234.62-6.88Q234.62-6.01 234.55-4.59 234.47-3.17 234.13-1.83 233.79-0.49 233.06 0.49 232.32 1.46 231.01 1.46L231.01 1.46Q229.2 1.46 228.22 0.29 227.25-0.88 227.29-2.64L227.29-2.64Q225.73-1.27 223.75-0.49 221.78 0.29 219.73 0.29L219.73 0.29Q218.31 0.29 217.04-0.39 215.77-1.07 214.79-2.15 213.82-3.22 213.23-4.57 212.65-5.91 212.65-7.23L212.65-7.23Q212.65-9.57 214.09-11.33 215.53-13.09 217.63-14.33 219.73-15.58 222.09-16.31 224.46-17.04 226.32-17.29L226.32-17.29Q226.32-17.53 226.34-17.72 226.37-17.92 226.37-18.16L226.37-18.16Q226.37-19.68 225.54-20.61 224.71-21.53 223.19-21.53L223.19-21.53Q221.97-21.53 221.09-21.12 220.21-20.7 219.43-20.19 218.65-19.68 217.87-19.26 217.09-18.85 216.11-18.85L216.11-18.85Q215.04-18.85 214.28-19.53 213.53-20.21 213.53-21.29L213.53-21.29Q213.53-22.9 214.48-24.22 215.43-25.54 216.87-26.44 218.31-27.34 220-27.86 221.68-28.37 223.1-28.37L223.1-28.37Q224.41-28.37 225.73-28.05 227.05-27.73 228.22-27.08 229.39-26.42 230.35-25.46 231.3-24.51 231.88-23.24L231.88-23.24Q232.76-21.44 233.3-19.41 233.84-17.38 234.13-15.26 234.42-13.13 234.52-11.01 234.62-8.89 234.62-6.88ZM226.81-8.45L226.81-8.45 226.66-11.77Q226.56-11.77 226.46-11.79 226.37-11.82 226.27-11.82L226.27-11.82Q225.63-11.82 224.68-11.5 223.73-11.18 222.85-10.62 221.97-10.06 221.36-9.38 220.75-8.69 220.75-7.96L220.75-7.96Q220.75-7.28 221.24-7.03 221.73-6.79 222.36-6.79L222.36-6.79Q223.44-6.79 224.66-7.35 225.88-7.91 226.81-8.45ZM259.23-26.27L259.23-26.27Q259.23-24.9 258.52-23.49 257.81-22.07 256.81-20.68 255.81-19.29 254.71-18.04 253.61-16.8 252.78-15.77L252.78-15.77Q253.47-14.7 254.49-12.92 255.52-11.13 256.45-9.13 257.37-7.13 258.03-5.22 258.69-3.32 258.69-2.05L258.69-2.05Q258.69-1.03 258.06-0.17 257.42 0.68 256.3 0.68L256.3 0.68Q255.47 0.68 254.61-0.02 253.76-0.73 252.91-1.88 252.05-3.03 251.27-4.44 250.49-5.86 249.83-7.23 249.17-8.59 248.66-9.79 248.14-10.99 247.85-11.72L247.85-11.72Q247.22-11.08 246.51-10.67 245.8-10.25 245.12-9.72L245.12-9.72Q245.12-8.69 245.04-6.84 244.97-4.98 244.6-3.17 244.24-1.37 243.41-0.02 242.58 1.32 240.97 1.32L240.97 1.32Q239.7 1.32 239.01 0.17 238.33-0.98 238.01-2.51 237.7-4.05 237.65-5.64 237.6-7.23 237.6-8.06L237.6-8.06Q237.6-11.67 237.79-15.28 237.99-18.9 238.04-22.51L238.04-22.51Q238.04-23.34 238.06-24.68 238.09-26.03 238.23-27.59 238.38-29.15 238.67-30.76 238.96-32.37 239.5-33.67 240.04-34.96 240.89-35.77 241.75-36.57 242.97-36.57L242.97-36.57Q243.85-36.57 244.46-35.91 245.07-35.25 245.43-34.23 245.8-33.2 245.97-31.93 246.14-30.66 246.22-29.42 246.29-28.17 246.29-27.1 246.29-26.03 246.29-25.39L246.29-25.39Q246.29-24.95 246.26-24.1 246.24-23.24 246.22-22.31 246.19-21.39 246.19-20.61 246.19-19.82 246.29-19.48L246.29-19.48Q246.63-19.48 247.31-20.14 248-20.8 248.9-21.83 249.8-22.85 250.85-24 251.9-25.15 253-26.17 254.1-27.2 255.18-27.86 256.25-28.52 257.18-28.52L257.18-28.52Q258.15-28.52 258.69-27.83 259.23-27.15 259.23-26.27ZM281.15-8.69L281.15-8.69Q281.15-7.03 280.1-5.44 279.05-3.86 277.47-2.61 275.88-1.37 274.07-0.61 272.27 0.15 270.75 0.15L270.75 0.15Q268.16 0.15 266.14-1.15 264.11-2.44 262.74-4.44 261.38-6.45 260.67-8.86 259.96-11.28 259.96-13.57L259.96-13.57Q259.96-16.02 260.64-18.8 261.33-21.58 262.72-23.93 264.11-26.27 266.24-27.83 268.36-29.39 271.29-29.39L271.29-29.39Q272.95-29.39 274.46-28.83 275.98-28.27 277.1-27.25 278.22-26.22 278.91-24.8 279.59-23.39 279.59-21.63L279.59-21.63Q279.59-19.34 278.61-17.33 277.64-15.33 276.03-13.87 274.41-12.4 272.31-11.5 270.21-10.6 268.02-10.5L268.02-10.5Q268.21-9.08 269.17-8.45 270.12-7.81 271.44-7.81L271.44-7.81Q272.41-7.81 273.34-8.3 274.27-8.79 275.15-9.4 276.03-10.01 276.88-10.5 277.73-10.99 278.61-10.99L278.61-10.99Q279.59-10.99 280.37-10.35 281.15-9.72 281.15-8.69ZM273.24-20.65L273.24-20.65Q273.24-21.29 272.9-21.97 272.56-22.66 271.83-22.66L271.83-22.66Q270.75-22.66 270.02-22.09 269.29-21.53 268.8-20.68 268.31-19.82 268.04-18.85 267.77-17.87 267.72-17.04L267.72-17.04Q268.41-17.19 269.36-17.43 270.31-17.68 271.17-18.09 272.02-18.51 272.63-19.14 273.24-19.78 273.24-20.65ZM317.53-26.17L317.53-26.17Q317.53-23.54 316.38-21 315.23-18.46 313.33-16.43 311.43-14.4 308.98-13.11 306.54-11.82 303.96-11.67L303.96-11.67Q303.91-10.79 303.88-9.45 303.86-8.11 303.71-6.64 303.56-5.18 303.3-3.71 303.03-2.25 302.51-1.07 302 0.1 301.2 0.83 300.39 1.56 299.22 1.56L299.22 1.56Q297.85 1.56 297.05 0.66 296.24-0.24 295.83-1.51 295.41-2.78 295.26-4.17 295.12-5.57 295.07-6.54L295.07-6.54Q294.97-7.96 294.95-9.33 294.92-10.69 294.92-12.11L294.92-12.11Q294.92-12.74 294.92-14.48 294.92-16.21 294.95-18.43 294.97-20.65 295.02-23.07 295.07-25.49 295.17-27.56 295.26-29.64 295.39-31.1 295.51-32.57 295.7-32.81L295.7-32.81Q295.75-32.86 296-33.03 296.24-33.2 296.53-33.37 296.83-33.54 297.07-33.69 297.31-33.84 297.41-33.89L297.41-33.89Q299.66-35.16 302.34-36.08 305.03-37.01 307.67-37.01L307.67-37.01Q309.91-37.01 311.74-36.11 313.57-35.21 314.87-33.72 316.16-32.23 316.85-30.25 317.53-28.27 317.53-26.17ZM309.08-25.05L309.08-25.05Q309.08-26.03 308.62-26.76 308.15-27.49 307.08-27.49L307.08-27.49Q306.15-27.49 305.22-27.12 304.3-26.76 303.52-26.37L303.52-26.37Q303.66-24.66 303.78-23.05 303.91-21.44 303.81-19.73L303.81-19.73Q304.59-20.12 305.52-20.63 306.45-21.14 307.23-21.78 308.01-22.41 308.54-23.22 309.08-24.02 309.08-25.05ZM339.16-8.69L339.16-8.69Q339.16-7.03 338.11-5.44 337.06-3.86 335.47-2.61 333.89-1.37 332.08-0.61 330.27 0.15 328.76 0.15L328.76 0.15Q326.17 0.15 324.15-1.15 322.12-2.44 320.75-4.44 319.38-6.45 318.68-8.86 317.97-11.28 317.97-13.57L317.97-13.57Q317.97-16.02 318.65-18.8 319.34-21.58 320.73-23.93 322.12-26.27 324.24-27.83 326.37-29.39 329.3-29.39L329.3-29.39Q330.96-29.39 332.47-28.83 333.98-28.27 335.11-27.25 336.23-26.22 336.91-24.8 337.6-23.39 337.6-21.63L337.6-21.63Q337.6-19.34 336.62-17.33 335.64-15.33 334.03-13.87 332.42-12.4 330.32-11.5 328.22-10.6 326.03-10.5L326.03-10.5Q326.22-9.08 327.17-8.45 328.13-7.81 329.44-7.81L329.44-7.81Q330.42-7.81 331.35-8.3 332.28-8.79 333.15-9.4 334.03-10.01 334.89-10.5 335.74-10.99 336.62-10.99L336.62-10.99Q337.6-10.99 338.38-10.35 339.16-9.72 339.16-8.69ZM331.25-20.65L331.25-20.65Q331.25-21.29 330.91-21.97 330.57-22.66 329.83-22.66L329.83-22.66Q328.76-22.66 328.03-22.09 327.29-21.53 326.81-20.68 326.32-19.82 326.05-18.85 325.78-17.87 325.73-17.04L325.73-17.04Q326.42-17.19 327.37-17.43 328.32-17.68 329.17-18.09 330.03-18.51 330.64-19.14 331.25-19.78 331.25-20.65ZM358.06-18.26L358.06-18.26Q357.37-18.21 356.88-18.38 356.4-18.55 355.91-18.75L355.91-18.75Q355.47-18.95 355.03-19.12 354.59-19.29 354.05-19.24L354.05-19.24Q353.08-19.19 352.32-18.7 351.56-18.21 350.95-17.48 350.34-16.75 349.9-15.84 349.46-14.94 349.22-14.06L349.22-14.06Q349.07-13.48 349-12.28 348.93-11.08 348.93-9.72L348.93-9.72Q348.88-8.3 348.88-7.03 348.88-5.76 348.78-5.03L348.78-5.03Q348.73-4.25 348.54-3.2 348.34-2.15 347.92-1.22 347.51-0.29 346.83 0.34 346.14 0.98 345.07 0.98L345.07 0.98Q344.24 0.98 343.63 0.49 343.02 0 342.6-0.81 342.19-1.61 341.92-2.69 341.65-3.76 341.5-4.88L341.5-4.88Q341.36-6.05 341.28-7.23 341.21-8.4 341.19-9.45 341.16-10.5 341.19-11.38 341.21-12.26 341.21-12.79L341.21-12.79Q341.16-14.5 341.04-16.24 340.92-17.97 340.92-19.68L340.92-19.68Q340.92-20.75 341.02-22.07 341.11-23.39 341.55-24.54 341.99-25.68 342.85-26.46 343.7-27.25 345.21-27.25L345.21-27.25Q346.04-27.25 346.63-26.71 347.22-26.17 347.58-25.39 347.95-24.61 348.14-23.73 348.34-22.85 348.39-22.12L348.39-22.12Q349.56-24.02 351.03-25.22 352.49-26.42 354.83-26.51L354.83-26.51Q356.01-26.56 357.15-26.29 358.3-26.03 359.25-25.42 360.21-24.8 360.82-23.83 361.43-22.85 361.47-21.53L361.47-21.53Q361.57-19.97 360.55-19.14 359.52-18.31 358.06-18.26ZM382.67-29.2L382.67-29.2Q382.67-28.27 382.5-27.42 382.32-26.56 381.88-25.93 381.45-25.29 380.71-24.93 379.98-24.56 378.91-24.56L378.91-24.56Q377.69-24.56 377.1-25.05 376.51-25.54 376.29-26.25 376.07-26.95 376.07-27.78 376.07-28.61 376-29.32 375.93-30.03 375.63-30.52 375.34-31.01 374.56-31.01L374.56-31.01Q373.83-31.01 373.36-29.88 372.9-28.76 372.61-27.29 372.31-25.83 372.22-24.44 372.12-23.05 372.12-22.56L372.12-22.56Q372.75-22.66 373.34-22.73 373.93-22.8 374.61-22.8L374.61-22.8Q375.29-22.8 376.03-22.66 376.76-22.51 377.39-22.19 378.03-21.88 378.42-21.31 378.81-20.75 378.81-19.92L378.81-19.92Q378.81-19.04 378.05-18.36 377.29-17.68 376.25-17.21 375.2-16.75 374.12-16.46 373.05-16.16 372.41-16.06L372.41-16.06Q372.56-12.7 372.56-9.28L372.56-9.28Q372.56-6.05 372.41-2.93L372.41-2.93Q372.31-1.42 371.36-0.44 370.41 0.54 368.9 0.54L368.9 0.54Q368.07 0.54 367.48 0.22 366.89-0.1 366.5-0.63 366.11-1.17 365.89-1.86 365.67-2.54 365.63-3.27L365.63-3.27Q365.38-6.2 365.23-9.16 365.09-12.11 365.14-15.09L365.14-15.09Q364.79-15.04 364.48-15.04 364.16-15.04 363.82-15.04L363.82-15.04Q363.23-15.04 362.4-15.19 361.57-15.33 360.82-15.7 360.06-16.06 359.52-16.6 358.98-17.14 358.98-17.97L358.98-17.97Q358.98-19.04 359.69-19.78 360.4-20.51 361.4-20.97 362.4-21.44 363.5-21.63 364.6-21.83 365.43-21.92L365.43-21.92 365.43-22.71Q365.43-25.1 365.87-27.83 366.31-30.57 367.43-32.91 368.55-35.25 370.51-36.79 372.46-38.33 375.49-38.33L375.49-38.33Q377.39-38.33 378.76-37.52 380.13-36.72 381.01-35.42 381.88-34.13 382.28-32.5 382.67-30.86 382.67-29.2ZM401.32-8.69L401.32-8.69Q401.32-7.03 400.27-5.44 399.22-3.86 397.63-2.61 396.04-1.37 394.24-0.61 392.43 0.15 390.92 0.15L390.92 0.15Q388.33 0.15 386.3-1.15 384.28-2.44 382.91-4.44 381.54-6.45 380.83-8.86 380.13-11.28 380.13-13.57L380.13-13.57Q380.13-16.02 380.81-18.8 381.49-21.58 382.89-23.93 384.28-26.27 386.4-27.83 388.53-29.39 391.46-29.39L391.46-29.39Q393.12-29.39 394.63-28.83 396.14-28.27 397.27-27.25 398.39-26.22 399.07-24.8 399.76-23.39 399.76-21.63L399.76-21.63Q399.76-19.34 398.78-17.33 397.8-15.33 396.19-13.87 394.58-12.4 392.48-11.5 390.38-10.6 388.18-10.5L388.18-10.5Q388.38-9.08 389.33-8.45 390.28-7.81 391.6-7.81L391.6-7.81Q392.58-7.81 393.51-8.3 394.43-8.79 395.31-9.4 396.19-10.01 397.05-10.5 397.9-10.99 398.78-10.99L398.78-10.99Q399.76-10.99 400.54-10.35 401.32-9.72 401.32-8.69ZM393.41-20.65L393.41-20.65Q393.41-21.29 393.07-21.97 392.72-22.66 391.99-22.66L391.99-22.66Q390.92-22.66 390.19-22.09 389.45-21.53 388.96-20.68 388.48-19.82 388.21-18.85 387.94-17.87 387.89-17.04L387.89-17.04Q388.57-17.19 389.53-17.43 390.48-17.68 391.33-18.09 392.19-18.51 392.8-19.14 393.41-19.78 393.41-20.65ZM421.39-18.75L421.39-18.75Q421.39-18.51 421.34-18.24 421.29-17.97 421.19-17.72L421.19-17.72Q420.75-16.6 419.82-15.84 418.9-15.09 417.63-15.09L417.63-15.09Q415.72-15.09 415.04-16.99L415.04-16.99Q414.94-17.24 414.94-17.55 414.94-17.87 414.89-18.21L414.89-18.21 414.89-19.63Q414.79-20.31 414.55-20.7 414.31-21.09 413.72-21.09L413.72-21.09Q412.89-21.09 412.13-20.04 411.38-18.99 410.82-17.55 410.25-16.11 409.91-14.6 409.57-13.09 409.57-12.16L409.57-12.16Q409.57-11.43 409.67-10.38 409.77-9.33 410.06-8.35 410.35-7.37 410.86-6.67 411.38-5.96 412.21-5.96L412.21-5.96Q413.04-5.96 413.75-6.47 414.45-6.98 415.14-7.67L415.14-7.67Q415.77-8.25 416.53-8.89 417.29-9.52 418.26-9.52L418.26-9.52Q419.48-9.52 420.19-8.64 420.9-7.76 420.9-6.64L420.9-6.64Q420.9-4.98 420.02-3.54 419.14-2.1 417.82-1.05 416.5 0 414.89 0.61 413.28 1.22 411.82 1.22L411.82 1.22Q409.18 1.22 407.35-0.1 405.52-1.42 404.39-3.44 403.27-5.47 402.78-7.86 402.29-10.25 402.29-12.4L402.29-12.4Q402.29-14.89 402.98-17.8 403.66-20.7 405.08-23.19 406.49-25.68 408.72-27.34 410.94-29 414.01-29L414.01-29Q415.92-29 417.31-28.17 418.7-27.34 419.6-26 420.51-24.66 420.97-23 421.44-21.34 421.44-19.73L421.44-19.73Q421.44-19.48 421.44-19.24 421.44-18.99 421.39-18.75ZM435.5 1.76L435.5 1.76Q432.03 1.76 430.1 0.85 428.17-0.05 427.22-1.71 426.27-3.37 426.07-5.71 425.88-8.06 425.88-10.94L425.88-10.94Q425.88-13.23 426.03-15.55 426.17-17.87 426.46-20.51L426.46-20.51Q425.78-20.51 425.39-20.48 425-20.46 424.76-20.46L424.76-20.46Q423.19-20.46 422.05-21.14 420.9-21.83 420.9-23.24L420.9-23.24Q420.9-24.12 421.56-24.8 422.22-25.49 423.24-25.98 424.27-26.46 425.46-26.76 426.66-27.05 427.73-27.15L427.73-27.15Q427.73-28.52 427.93-30.18 428.13-31.84 428.64-33.28 429.15-34.72 430.03-35.69 430.91-36.67 432.28-36.67L432.28-36.67Q433.06-36.67 433.67-36.21 434.28-35.74 434.67-35.03 435.06-34.33 435.25-33.45 435.45-32.57 435.45-31.74L435.45-31.74Q435.45-30.76 435.3-29.74 435.16-28.71 434.77-27.2L434.77-27.2Q435.6-27.29 435.89-27.32 436.18-27.34 436.43-27.34L436.43-27.34Q437.26-27.34 438.16-27.2 439.06-27.05 439.82-26.71 440.58-26.37 441.06-25.81 441.55-25.24 441.55-24.46L441.55-24.46Q441.55-23.58 440.84-22.9 440.14-22.22 439.06-21.73 437.99-21.24 436.77-20.97 435.55-20.7 434.47-20.61L434.47-20.61Q434.18-18.6 434.06-16.92 433.94-15.23 433.79-13.53L433.79-13.53Q433.69-12.7 433.62-11.84 433.54-10.99 433.54-10.11L433.54-10.11Q433.54-9.47 433.59-8.62 433.64-7.76 433.94-6.98 434.23-6.2 434.86-5.64 435.5-5.08 436.62-5.08L436.62-5.08Q437.3-5.08 438.04-5.2 438.77-5.32 439.5-5.32L439.5-5.32Q440.77-5.32 441.33-4.44 441.89-3.56 441.89-2.2L441.89-2.2Q441.89-1.17 441.28-0.42 440.67 0.34 439.75 0.81 438.82 1.27 437.67 1.51 436.52 1.76 435.5 1.76Z" opacity="1" transform="matrix(1,0,0,1,0,0)" fill="black" class="slogan-text-1" id="SvgjsPath1095" stroke-width="5" stroke="black" stroke-linejoin="round"></path></svg></g></svg></g></svg></g></svg></g><g></g></svg></g></svg></g></svg></g></mask><g mask="url(#60a6ba40-c128-446e-a185-c3e884930a96)"><g><path xmlns="http://www.w3.org/2000/svg" d="M370.679 48.056v0c11.873 0 17.809-2.872 17.809-8.618v0c0-2.872 1.015-4.309 3.045-4.308 1.992 0 2.987 2.336 2.987 7.008 0 4.711-2.681 8.311-8.043 10.801-5.362 2.489-10.092 3.734-14.189 3.734-4.136 0-7.545-0.191-10.226-0.575v0c-28.15-3.638-52.278-9.766-72.385-18.383v0c-13.596 21.447-25.756 49.98-36.48 85.598v0c-4.021 12.83-9.709 26.713-17.062 41.65-7.392 14.937-15.358 27.23-23.898 36.881-8.502 9.69-18.307 17.598-29.414 23.727v0c-21.83 11.873-47.586 17.809-77.267 17.808v0c-24.128 0-46.725-5.936-67.789-17.808v0c-20.681-11.681-32.745-29.682-36.193-54.002v0c-0.383-3.255-0.574-8.1-0.574-14.534 0-6.396 1.877-15.53 5.63-27.403 3.715-11.873 10.743-20.873 21.083-27.001v0c4.213-2.489 7.373-3.734 9.479-3.734v0c3.447 0 4.979 1.628 4.596 4.883v0c-0.766 0.957-2.719 2.528-5.86 4.711-3.179 2.221-6.204 4.538-9.076 6.951-2.872 2.375-5.745 6.051-8.618 11.03v0c-4.979 8.426-7.468 17.905-7.468 28.437v0c0 24.128 8.234 42.703 24.703 55.725v0c8.809 7.277 18.671 12.83 29.586 16.66 10.915 3.83 21.83 5.745 32.745 5.745v0c0.383 0 0.862 0 1.436 0v0c39.639-0.957 72.193-15.32 97.662-43.086v0c16.085-17.426 38.107-56.778 66.066-118.056v0c9.575-21.064 15.703-33.416 18.383-37.054v0c-33.894-10.724-64.342-16.085-91.343-16.086-27.001 0-48.927 8.138-65.778 24.416v0c-13.596 13.022-20.394 26.618-20.394 40.788v0c0 15.511 6.798 25.373 20.394 29.586v0c4.787 1.34 9.153 2.011 13.099 2.01 3.906 0 8.407-0.728 13.5-2.183 5.055-1.417 9.939-4.385 14.649-8.904 4.672-4.481 8.215-8.924 10.628-13.328 2.375-4.404 3.37-7.755 2.987-10.054v0-0.574c1.532-1.34 2.872-1.781 4.022-1.321 1.149 0.498 1.723 1.704 1.723 3.619v0c-1.915 14.937-9.479 26.139-22.692 33.607v0c-8.043 4.787-15.511 7.181-22.405 7.181-6.894 0-13.022-0.957-18.383-2.872v0c-15.703-5.553-25.66-16.181-29.873-31.884v0c-1.34-4.979-2.011-9.862-2.011-14.649v0c0-11.49 3.543-22.692 10.628-33.608v0c12.639-19.532 32.458-31.309 59.459-35.33v0c6.128-0.957 11.968-1.436 17.522-1.436 5.553 0 12.007 0.287 19.36 0.861 7.392 0.574 17.177 2.489 29.356 5.745 12.141 3.255 24.588 7.028 37.341 11.317 12.715 4.328 20.317 6.875 22.807 7.641v0c9.383-11.49 16.373-17.33 20.969-17.522v0c0.957-0.383 2.26-0.574 3.906-0.574 1.609 0 2.892 1.34 3.849 4.021 0.957 2.681 0.287 4.404-2.011 5.171v0c-0.957 0.191-2.202 0.096-3.734-0.288v0c-1.149-0.766-3.485 0.44-7.008 3.62-3.562 3.14-6.204 5.764-7.928 7.87v0c18 5.745 33.799 9.9 47.394 12.466 13.596 2.604 23.362 3.906 29.299 3.907z" fill="#fa4238" fill-rule="nonzero" stroke="none" stroke-width="1" stroke-linecap="butt" stroke-linejoin="miter" stroke-miterlimit="10" stroke-dasharray="" stroke-dashoffset="0" font-family="none" font-weight="none" font-size="none" text-anchor="none" style="mix-blend-mode: normal" data-fill-palette-color="tertiary"></path></g></g><g transform="matrix(1,0,0,1,0,41.6874726466892)"><svg viewBox="0 0 395.52 163.8250547066216" height="163.8250547066216" width="395.52"><g><svg viewBox="0 0 395.52 163.8250547066216" height="163.8250547066216" width="395.52"><g><svg viewBox="0 0 395.52 163.8250547066216" height="163.8250547066216" width="395.52"><g><svg viewBox="0 0 395.52 163.8250547066216" height="163.8250547066216" width="395.52"><g id="textblocktransform"><svg viewBox="0 0 395.52 163.8250547066216" height="163.8250547066216" width="395.52" id="textblock"><g><svg viewBox="0 0 395.52 109.67165267450225" height="109.67165267450225" width="395.52"><g transform="matrix(1,0,0,1,0,0)"><svg width="395.52" viewBox="-1.5 -40 209.42999267578125 58.79999923706055" height="109.67165267450225" data-palette-color="#fa4238"><path d="M65.85-29.3L65.85-29.3Q68.95-29.3 68.95-30.8L68.95-30.8Q68.95-31.55 69.48-31.55 70-31.55 70-30.33 70-29.1 68.6-28.45 67.2-27.8 66.13-27.8 65.05-27.8 64.35-27.9L64.35-27.9Q57-28.85 51.75-31.1L51.75-31.1Q48.2-25.5 45.4-16.2L45.4-16.2Q44.35-12.85 42.43-8.95 40.5-5.05 38.27-2.53 36.05 0 33.15 1.6L33.15 1.6Q27.45 4.7 19.7 4.7L19.7 4.7Q13.4 4.7 7.9 1.6L7.9 1.6Q2.5-1.45 1.6-7.8L1.6-7.8Q1.5-8.65 1.5-10.33 1.5-12 2.48-15.1 3.45-18.2 6.15-19.8L6.15-19.8Q7.25-20.45 7.8-20.45L7.8-20.45Q8.7-20.45 8.6-19.6L8.6-19.6Q8.4-19.35 7.58-18.78 6.75-18.2 6-17.57 5.25-16.95 4.5-15.65L4.5-15.65Q3.2-13.45 3.2-10.7L3.2-10.7Q3.2-4.4 7.5-1L7.5-1Q9.8 0.9 12.65 1.9 15.5 2.9 18.35 2.9L18.35 2.9Q18.45 2.9 18.6 2.9L18.6 2.9Q28.95 2.65 35.6-4.6L35.6-4.6Q39.8-9.15 47.1-25.15L47.1-25.15Q49.6-30.65 50.3-31.6L50.3-31.6Q41.45-34.4 34.4-34.4 27.35-34.4 22.95-30.15L22.95-30.15Q19.4-26.75 19.4-23.05L19.4-23.05Q19.4-19 22.95-17.9L22.95-17.9Q24.2-17.55 25.23-17.55 26.25-17.55 27.58-17.93 28.9-18.3 30.13-19.48 31.35-20.65 31.98-21.8 32.6-22.95 32.5-23.55L32.5-23.55 32.5-23.65Q32.9-24 33.2-23.88 33.5-23.75 33.5-23.25L33.5-23.25Q33-19.35 29.55-17.4L29.55-17.4Q27.45-16.15 25.65-16.15 23.85-16.15 22.45-16.65L22.45-16.65Q18.35-18.1 17.25-22.2L17.25-22.2Q16.9-23.5 16.9-24.75L16.9-24.75Q16.9-27.75 18.75-30.6L18.75-30.6Q22.05-35.7 29.1-36.75L29.1-36.75Q30.7-37 32.15-37 33.6-37 35.52-36.85 37.45-36.7 40.63-35.85 43.8-35 47.13-33.88 50.45-32.75 51.1-32.55L51.1-32.55Q53.55-35.55 54.75-35.6L54.75-35.6Q55-35.7 55.43-35.7 55.85-35.7 56.1-35 56.35-34.3 55.75-34.1L55.75-34.1Q55.5-34.05 55.1-34.15L55.1-34.15Q54.8-34.35 53.88-33.52 52.95-32.7 52.5-32.15L52.5-32.15Q57.2-30.65 60.75-29.98 64.3-29.3 65.85-29.3ZM47-2.9L47-2.9Q47-5.05 48.85-8.1L48.85-8.1Q48.05-8.1 48.4-8.9L48.4-8.9 49.3-10.65Q51-13.9 52.1-16.15L52.1-16.15Q52.6-17.2 54.05-17.2L54.05-17.2 57.1-17.2Q55.3-15.9 53.47-12.18 51.65-8.45 50.65-6.33 49.65-4.2 49.65-3.1 49.65-2 50.02-1.55 50.4-1.1 51.05-1.1L51.05-1.1Q52-1.1 53.7-3.1L53.7-3.1Q56.35-6.2 61.15-16.15L61.15-16.15Q61.7-17.2 63.1-17.2L63.1-17.2 65.8-17.2Q64.7-16.35 64.07-15.45 63.45-14.55 62.35-12.25L62.35-12.25Q59.35-6.25 59-4.3L59-4.3Q58.85-3.6 58.85-3L58.85-3Q58.85-1.4 59.95-1.3L59.95-1.3Q62.65-1.3 66.6-9.65L66.6-9.65Q66.9-10.35 67.2-10.2 67.5-10.05 67.5-9.8 67.5-9.55 67.05-8.65 66.6-7.75 66.17-6.9 65.75-6.05 64.87-4.58 64-3.1 63.25-2.25L63.25-2.25Q61.3-0.05 59.42-0.05 57.55-0.05 56.85-1.7L56.85-1.7Q56.55-2.45 56.55-3.6 56.55-4.75 57.05-6.45L57.05-6.45Q53.4-0.05 50.3-0.05L50.3-0.05Q47.6-0.05 47.15-2.3L47.15-2.3Q47-2.55 47-2.9ZM81.8-13.55Q80.9-12.65 79.25-9.47 77.6-6.3 77.27-4.73 76.95-3.15 76.95-2.18 76.95-1.2 77.7-1.2L77.7-1.2Q78.65-1.2 80.05-2.95L80.05-2.95Q82.1-5.5 84.1-9.6L84.1-9.6Q84.3-10.05 84.55-10.1L84.55-10.1Q84.95-10.25 84.95-9.8L84.95-9.8Q84.95-9.55 84.8-9.2L84.8-9.2Q80.2 0.1 77.05 0.1L77.05 0.1Q75.6 0.1 74.7-1.3L74.7-1.3Q74.25-2.05 74.25-3.3 74.25-4.55 74.75-6.35L74.75-6.35Q70.75 0.1 67.85 0.1L67.85 0.1Q67.05 0.1 66.4-0.4L66.4-0.4Q64.9-1.45 64.9-4L64.9-4Q64.9-8.9 69.15-13.95L69.15-13.95Q71.55-16.75 75.05-17.6L75.05-17.6Q76-17.85 76.85-17.85L76.85-17.85Q79.15-17.85 80.75-16.25L80.75-16.25Q81.25-15.7 81.05-15.2 80.85-14.7 80.2-14.8L80.2-14.8Q79.65-16.6 77.8-16.6L77.8-16.6Q75.65-16.6 72.5-13.2L72.5-13.2Q70.7-11.2 69.15-8.5L69.15-8.5Q67.2-5.25 67.2-3.3 67.2-1.35 68.45-1.35L68.45-1.35Q71.45-1.35 76.3-10.55L76.3-10.55Q77.25-12.4 77.9-13.08 78.55-13.75 79.55-13.75L79.55-13.75Q79.75-13.75 80.57-13.6 81.4-13.45 81.8-13.55L81.8-13.55ZM99.19-16.4L99.19-16.4Q93.04-5.6 93.04-2.3L93.04-2.3Q93.04-1 93.99-1L93.99-1Q96.54-1 100.84-9.65L100.84-9.65Q101.14-10.35 101.44-10.2 101.74-10.05 101.74-9.8 101.74-9.55 101.54-9.2L101.54-9.2Q98.89-3.85 97.07-1.83 95.24 0.2 93.42 0.2 91.59 0.2 90.64-1.2L90.64-1.2Q90.14-1.85 90.14-2.98 90.14-4.1 90.64-5.7 91.14-7.3 93.39-10.9L93.39-10.9Q93.94-11.8 93.94-12.33 93.94-12.85 93.09-12.85 92.24-12.85 89.84-10.6L89.84-10.6Q86.24-7.3 82.89-0.7L82.89-0.7Q82.59-0.2 82.22-0.08 81.84 0.05 80.74 0.1 79.64 0.15 79.29 0.35L79.29 0.35Q80.09-1.25 82.44-6.2L82.44-6.2Q86.64-14.95 87.94-16.2L87.94-16.2Q88.54-16.8 89.59-16.8L89.59-16.8Q89.79-16.8 90.62-16.65 91.44-16.5 91.84-16.6L91.84-16.6Q89.99-15.6 85.79-7.2L85.79-7.2Q88.14-10.1 90.07-11.83 91.99-13.55 94.69-15.03 97.39-16.5 98.64-16.5L98.64-16.5Q98.94-16.5 99.19-16.4ZM115.94-16.4L115.94-16.4Q109.79-5.6 109.79-2.3L109.79-2.3Q109.79-1 110.74-1L110.74-1Q113.29-1 117.59-9.65L117.59-9.65Q117.89-10.35 118.19-10.2 118.49-10.05 118.49-9.8 118.49-9.55 118.29-9.2L118.29-9.2Q115.64-3.85 113.82-1.83 111.99 0.2 110.17 0.2 108.34 0.2 107.39-1.2L107.39-1.2Q106.89-1.85 106.89-2.98 106.89-4.1 107.39-5.7 107.89-7.3 110.14-10.9L110.14-10.9Q110.69-11.8 110.69-12.33 110.69-12.85 109.84-12.85 108.99-12.85 106.59-10.6L106.59-10.6Q102.99-7.3 99.64-0.7L99.64-0.7Q99.34-0.2 98.97-0.08 98.59 0.05 97.49 0.1 96.39 0.15 96.04 0.35L96.04 0.35Q96.84-1.25 99.19-6.2L99.19-6.2Q103.39-14.95 104.69-16.2L104.69-16.2Q105.29-16.8 106.34-16.8L106.34-16.8Q106.54-16.8 107.37-16.65 108.19-16.5 108.59-16.6L108.59-16.6Q106.74-15.6 102.54-7.2L102.54-7.2Q104.89-10.1 106.82-11.83 108.74-13.55 111.44-15.03 114.14-16.5 115.39-16.5L115.39-16.5Q115.69-16.5 115.94-16.4ZM114.14 15.8L114.14 15.8Q109.44 15.8 109.44 11.95L109.44 11.95Q109.44 8.75 113.79 6.2L113.79 6.2Q117.49 4.05 123.24 2.15L123.24 2.15Q125.89 1.3 127.09 0.8L127.09 0.8Q128.39-3 128.39-7.5L128.39-7.5Q128.39-8.4 128.29-8.85L128.29-8.85Q126.89-6 124.44-3L124.44-3Q121.54 0.6 118.69-0.2L118.69-0.2Q116.09-1.3 116.09-4.5L116.09-4.5Q116.09-8.8 120.39-13.95L120.39-13.95Q122.74-16.75 125.89-17.5L125.89-17.5Q126.74-17.75 127.59-17.75L127.59-17.75Q129.84-17.75 131.99-16.25L131.99-16.25Q132.79-15.6 132.79-15.15 132.79-14.7 132.49-14.28 132.19-13.85 131.86-14.18 131.54-14.5 131.44-14.8L131.44-14.8Q130.79-16.65 129.34-16.65L129.34-16.65Q126.69-16.65 123.39-12.95L123.39-12.95Q121.54-10.85 120.19-8.45L120.19-8.45Q118.54-5.45 118.54-3.83 118.54-2.2 119.54-1.65L119.54-1.65Q119.89-1.5 120.24-1.5L120.24-1.5Q121.39-1.5 123.11-3.08 124.84-4.65 126.31-7.08 127.79-9.5 128.19-10.85 128.59-12.2 129.16-12.55 129.74-12.9 130.44-12.95 131.14-13 131.39-13.2L131.39-13.2Q131.79-10.95 131.79-7.93 131.79-4.9 130.74-1.05L130.74-1.05Q133.04-2.7 134.01-4 134.99-5.3 135.56-6.35 136.14-7.4 136.59-8.43 137.04-9.45 137.19-9.75 137.34-10.05 137.69-10.13 138.04-10.2 138.04-9.8L138.04-9.8Q138.04-9.55 137.89-9.2L137.89-9.2Q135.69-4.65 134.21-2.63 132.74-0.6 130.19 0.6L130.19 0.6Q128.99 4 126.71 7.35 124.44 10.7 120.99 13.25 117.54 15.8 114.14 15.8ZM110.49 12.9L110.49 12.9Q110.49 14.8 112.94 14.8L112.94 14.8Q114.39 14.8 116.21 13.95 118.04 13.1 119.24 12.2L119.24 12.2Q121.29 10.55 123.74 7.3L123.74 7.3Q125.59 4.7 126.59 2.25L126.59 2.25 124.84 2.85Q117.04 5.55 113.84 7.65L113.84 7.65Q111.49 9.2 110.74 11.6L110.74 11.6Q110.49 12.35 110.49 12.9ZM135.44-2.9L135.44-2.9Q135.44-5.05 137.28-8.1L137.28-8.1Q136.49-8.1 136.84-8.9L136.84-8.9 137.74-10.65Q139.44-13.9 140.53-16.15L140.53-16.15Q141.03-17.2 142.49-17.2L142.49-17.2 145.53-17.2Q143.74-15.9 141.91-12.18 140.09-8.45 139.09-6.33 138.09-4.2 138.09-3.1 138.09-2 138.46-1.55 138.84-1.1 139.49-1.1L139.49-1.1Q140.44-1.1 142.14-3.1L142.14-3.1Q144.78-6.2 149.59-16.15L149.59-16.15Q150.14-17.2 151.53-17.2L151.53-17.2 154.24-17.2Q153.14-16.35 152.51-15.45 151.89-14.55 150.78-12.25L150.78-12.25Q147.78-6.25 147.44-4.3L147.44-4.3Q147.28-3.6 147.28-3L147.28-3Q147.28-1.4 148.39-1.3L148.39-1.3Q151.09-1.3 155.04-9.65L155.04-9.65Q155.34-10.35 155.64-10.2 155.94-10.05 155.94-9.8 155.94-9.55 155.49-8.65 155.04-7.75 154.61-6.9 154.19-6.05 153.31-4.58 152.44-3.1 151.69-2.25L151.69-2.25Q149.74-0.05 147.86-0.05 145.99-0.05 145.28-1.7L145.28-1.7Q144.99-2.45 144.99-3.6 144.99-4.75 145.49-6.45L145.49-6.45Q141.84-0.05 138.74-0.05L138.74-0.05Q136.03-0.05 135.59-2.3L135.59-2.3Q135.44-2.55 135.44-2.9ZM148.08 15.8L148.08 15.8Q145.88 15.8 144.68 14.88 143.48 13.95 143.48 12.65 143.48 11.35 144.23 9.7L144.23 9.7Q145.53 7.15 148.93 5.6L148.93 5.6Q151.48 4.4 155.68 3.38 159.88 2.35 161.08 2L161.08 2Q162.88-1.15 165.38-9.25L165.38-9.25Q162.48-4.15 160.53-2.1 158.58-0.05 156.58-0.05L156.58-0.05Q153.88-0.05 153.43-2.3L153.43-2.3Q153.23-2.65 153.33-3.35 153.43-4.05 153.46-4.35 153.48-4.65 153.78-5.33 154.08-6 154.18-6.3L154.18-6.3Q154.73-7.45 155.13-8.1L155.13-8.1Q154.33-8.1 154.68-8.9L154.68-8.9 155.58-10.65Q157.28-13.9 158.38-16.15L158.38-16.15Q158.88-17.2 160.33-17.2L160.33-17.2 163.38-17.2Q163.28-17.1 162.88-16.8L162.88-16.8Q161.98-16.2 161.53-15.4L161.53-15.4Q159.73-12.3 157.03-6.55L157.03-6.55Q155.93-4.2 155.93-3.1 155.93-2 156.31-1.55 156.68-1.1 157.33-1.1L157.33-1.1Q158.28-1.1 159.98-3.1L159.98-3.1Q163.53-7.25 167.83-16.15L167.83-16.15Q168.38-17.2 169.78-17.2L169.78-17.2 172.48-17.2Q171.18-16.3 170.43-14.93 169.68-13.55 168.81-11.2 167.93-8.85 166.61-4.95 165.28-1.05 164.58 0.9L164.58 0.9Q169.28-0.5 171.78-4.05L171.78-4.05Q172.88-5.6 174.93-9.55L174.93-9.55Q175.28-10.25 175.56-10.1 175.83-9.95 175.83-9.7 175.83-9.45 175.01-7.78 174.18-6.1 173.33-4.67 172.48-3.25 171.13-1.75 169.78-0.25 168.13 0.63 166.48 1.5 163.73 2.5L163.73 2.5Q159.88 9.5 155.98 12.8L155.98 12.8Q152.33 15.8 148.08 15.8ZM145.18 10.85L145.18 10.85Q144.63 11.95 144.63 12.88 144.63 13.8 145.33 14.3 146.03 14.8 147.08 14.8L147.08 14.8Q149.98 14.8 153.28 11.83 156.58 8.85 159.08 5.45L159.08 5.45 160.18 3.6Q151.93 5.75 149.78 6.7L149.78 6.7Q146.58 8.1 145.18 10.85ZM177.18-7.7L177.18-7.7Q176.48-6 176.48-3.9L176.48-3.9Q176.48-2.5 177.1-1.68 177.73-0.85 178.88-0.85L178.88-0.85Q183.43-0.85 187.13-9.4L187.13-9.4Q187.48-10.2 187.98-10.1L187.98-10.1Q188.18-10.05 188.18-9.85 188.18-9.65 187.06-7.23 185.93-4.8 184.78-3.3L184.78-3.3Q182.23 0.2 178.48 0.2L178.48 0.2Q176.48 0.2 175.08-1.1 173.68-2.4 173.68-4.65 173.68-6.9 174.75-9.43 175.83-11.95 177.68-14.13 179.53-16.3 181.93-17.3L181.93-17.3Q183.08-17.8 184.13-17.8 185.18-17.8 186.08-17.2L186.08-17.2Q186.93-16.5 186.93-15.65L186.93-15.65Q186.93-12.65 183.33-9.9L183.33-9.9Q182.23-9.05 180.23-8.38 178.23-7.7 177.18-7.7ZM185.58-15.7L185.58-15.7Q185.58-16.7 184.78-16.7L184.78-16.7Q183.38-16.7 180.53-13.25L180.53-13.25Q178.83-11.15 177.53-8.55L177.53-8.55Q178.38-8.55 180-9.15 181.63-9.75 182.83-10.75L182.83-10.75Q185.58-13.1 185.58-15.7ZM202.38-16.4L202.38-16.4Q196.23-5.6 196.23-2.3L196.23-2.3Q196.23-1 197.18-1L197.18-1Q199.73-1 204.03-9.65L204.03-9.65Q204.33-10.35 204.63-10.2 204.93-10.05 204.93-9.8 204.93-9.55 204.73-9.2L204.73-9.2Q202.08-3.85 200.25-1.83 198.43 0.2 196.6 0.2 194.78 0.2 193.83-1.2L193.83-1.2Q193.33-1.85 193.33-2.98 193.33-4.1 193.83-5.7 194.33-7.3 196.58-10.9L196.58-10.9Q197.13-11.8 197.13-12.33 197.13-12.85 196.28-12.85 195.43-12.85 193.03-10.6L193.03-10.6Q189.43-7.3 186.08-0.7L186.08-0.7Q185.78-0.2 185.4-0.08 185.03 0.05 183.93 0.1 182.83 0.15 182.48 0.35L182.48 0.35Q183.28-1.25 185.63-6.2L185.63-6.2Q189.83-14.95 191.13-16.2L191.13-16.2Q191.73-16.8 192.78-16.8L192.78-16.8Q192.98-16.8 193.8-16.65 194.63-16.5 195.03-16.6L195.03-16.6Q193.18-15.6 188.98-7.2L188.98-7.2Q191.33-10.1 193.25-11.83 195.18-13.55 197.88-15.03 200.58-16.5 201.83-16.5L201.83-16.5Q202.13-16.5 202.38-16.4Z" opacity="1" transform="matrix(1,0,0,1,0,0)" fill="#fa4238" class="wordmark-text-0" data-fill-palette-color="primary" id="text-0"></path></svg></g></svg></g><g transform="matrix(1,0,0,1,2.5,124.29097353487164)"><svg viewBox="0 0 390.52 39.534081171749946" height="39.534081171749946" width="390.52"><g transform="matrix(1,0,0,1,0,0)"><svg width="390.52" viewBox="-1.4900000095367432 -41.33000183105469 446.3800048828125 46.09000015258789" height="39.534081171749946" data-palette-color="#fa4238"><path d="M24.12-26.17L24.12-26.17Q24.12-23.54 22.97-21 21.83-18.46 19.92-16.43 18.02-14.4 15.58-13.11 13.13-11.82 10.55-11.67L10.55-11.67Q10.5-10.79 10.47-9.45 10.45-8.11 10.3-6.64 10.16-5.18 9.89-3.71 9.62-2.25 9.11-1.07 8.59 0.1 7.79 0.83 6.98 1.56 5.81 1.56L5.81 1.56Q4.44 1.56 3.64 0.66 2.83-0.24 2.42-1.51 2-2.78 1.86-4.17 1.71-5.57 1.66-6.54L1.66-6.54Q1.56-7.96 1.54-9.33 1.51-10.69 1.51-12.11L1.51-12.11Q1.51-12.74 1.51-14.48 1.51-16.21 1.54-18.43 1.56-20.65 1.61-23.07 1.66-25.49 1.76-27.56 1.86-29.64 1.98-31.1 2.1-32.57 2.29-32.81L2.29-32.81Q2.34-32.86 2.59-33.03 2.83-33.2 3.13-33.37 3.42-33.54 3.66-33.69 3.91-33.84 4-33.89L4-33.89Q6.25-35.16 8.94-36.08 11.62-37.01 14.26-37.01L14.26-37.01Q16.5-37.01 18.33-36.11 20.17-35.21 21.46-33.72 22.75-32.23 23.44-30.25 24.12-28.27 24.12-26.17ZM15.67-25.05L15.67-25.05Q15.67-26.03 15.21-26.76 14.75-27.49 13.67-27.49L13.67-27.49Q12.74-27.49 11.82-27.12 10.89-26.76 10.11-26.37L10.11-26.37Q10.25-24.66 10.38-23.05 10.5-21.44 10.4-19.73L10.4-19.73Q11.18-20.12 12.11-20.63 13.04-21.14 13.82-21.78 14.6-22.41 15.14-23.22 15.67-24.02 15.67-25.05ZM42.24-18.26L42.24-18.26Q41.55-18.21 41.06-18.38 40.58-18.55 40.09-18.75L40.09-18.75Q39.65-18.95 39.21-19.12 38.77-19.29 38.23-19.24L38.23-19.24Q37.26-19.19 36.5-18.7 35.74-18.21 35.13-17.48 34.52-16.75 34.08-15.84 33.64-14.94 33.4-14.06L33.4-14.06Q33.25-13.48 33.18-12.28 33.11-11.08 33.11-9.72L33.11-9.72Q33.06-8.3 33.06-7.03 33.06-5.76 32.96-5.03L32.96-5.03Q32.91-4.25 32.71-3.2 32.52-2.15 32.1-1.22 31.69-0.29 31.01 0.34 30.32 0.98 29.25 0.98L29.25 0.98Q28.42 0.98 27.81 0.49 27.2 0 26.78-0.81 26.37-1.61 26.1-2.69 25.83-3.76 25.68-4.88L25.68-4.88Q25.54-6.05 25.46-7.23 25.39-8.4 25.37-9.45 25.34-10.5 25.37-11.38 25.39-12.26 25.39-12.79L25.39-12.79Q25.34-14.5 25.22-16.24 25.1-17.97 25.1-19.68L25.1-19.68Q25.1-20.75 25.2-22.07 25.29-23.39 25.73-24.54 26.17-25.68 27.03-26.46 27.88-27.25 29.39-27.25L29.39-27.25Q30.22-27.25 30.81-26.71 31.4-26.17 31.76-25.39 32.13-24.61 32.32-23.73 32.52-22.85 32.57-22.12L32.57-22.12Q33.74-24.02 35.21-25.22 36.67-26.42 39.01-26.51L39.01-26.51Q40.19-26.56 41.33-26.29 42.48-26.03 43.43-25.42 44.38-24.8 45-23.83 45.61-22.85 45.65-21.53L45.65-21.53Q45.75-19.97 44.73-19.14 43.7-18.31 42.24-18.26ZM67.14-6.88L67.14-6.88Q67.14-6.01 67.07-4.59 66.99-3.17 66.65-1.83 66.31-0.49 65.58 0.49 64.84 1.46 63.53 1.46L63.53 1.46Q61.72 1.46 60.74 0.29 59.77-0.88 59.81-2.64L59.81-2.64Q58.25-1.27 56.27-0.49 54.3 0.29 52.25 0.29L52.25 0.29Q50.83 0.29 49.56-0.39 48.29-1.07 47.31-2.15 46.34-3.22 45.75-4.57 45.17-5.91 45.17-7.23L45.17-7.23Q45.17-9.57 46.61-11.33 48.05-13.09 50.15-14.33 52.25-15.58 54.61-16.31 56.98-17.04 58.84-17.29L58.84-17.29Q58.84-17.53 58.86-17.72 58.89-17.92 58.89-18.16L58.89-18.16Q58.89-19.68 58.06-20.61 57.23-21.53 55.71-21.53L55.71-21.53Q54.49-21.53 53.61-21.12 52.73-20.7 51.95-20.19 51.17-19.68 50.39-19.26 49.61-18.85 48.63-18.85L48.63-18.85Q47.56-18.85 46.8-19.53 46.04-20.21 46.04-21.29L46.04-21.29Q46.04-22.9 47-24.22 47.95-25.54 49.39-26.44 50.83-27.34 52.51-27.86 54.2-28.37 55.62-28.37L55.62-28.37Q56.93-28.37 58.25-28.05 59.57-27.73 60.74-27.08 61.91-26.42 62.87-25.46 63.82-24.51 64.4-23.24L64.4-23.24Q65.28-21.44 65.82-19.41 66.36-17.38 66.65-15.26 66.94-13.13 67.04-11.01 67.14-8.89 67.14-6.88ZM59.33-8.45L59.33-8.45 59.18-11.77Q59.08-11.77 58.98-11.79 58.89-11.82 58.79-11.82L58.79-11.82Q58.15-11.82 57.2-11.5 56.25-11.18 55.37-10.62 54.49-10.06 53.88-9.38 53.27-8.69 53.27-7.96L53.27-7.96Q53.27-7.28 53.76-7.03 54.25-6.79 54.88-6.79L54.88-6.79Q55.96-6.79 57.18-7.35 58.4-7.91 59.33-8.45ZM88.18-18.75L88.18-18.75Q88.18-18.51 88.13-18.24 88.09-17.97 87.99-17.72L87.99-17.72Q87.55-16.6 86.62-15.84 85.69-15.09 84.42-15.09L84.42-15.09Q82.52-15.09 81.84-16.99L81.84-16.99Q81.74-17.24 81.74-17.55 81.74-17.87 81.69-18.21L81.69-18.21 81.69-19.63Q81.59-20.31 81.35-20.7 81.1-21.09 80.52-21.09L80.52-21.09Q79.69-21.09 78.93-20.04 78.17-18.99 77.61-17.55 77.05-16.11 76.71-14.6 76.37-13.09 76.37-12.16L76.37-12.16Q76.37-11.43 76.46-10.38 76.56-9.33 76.86-8.35 77.15-7.37 77.66-6.67 78.17-5.96 79-5.96L79-5.96Q79.83-5.96 80.54-6.47 81.25-6.98 81.93-7.67L81.93-7.67Q82.57-8.25 83.33-8.89 84.08-9.52 85.06-9.52L85.06-9.52Q86.28-9.52 86.99-8.64 87.7-7.76 87.7-6.64L87.7-6.64Q87.7-4.98 86.82-3.54 85.94-2.1 84.62-1.05 83.3 0 81.69 0.61 80.08 1.22 78.61 1.22L78.61 1.22Q75.98 1.22 74.15-0.1 72.31-1.42 71.19-3.44 70.07-5.47 69.58-7.86 69.09-10.25 69.09-12.4L69.09-12.4Q69.09-14.89 69.78-17.8 70.46-20.7 71.88-23.19 73.29-25.68 75.51-27.34 77.73-29 80.81-29L80.81-29Q82.71-29 84.11-28.17 85.5-27.34 86.4-26 87.3-24.66 87.77-23 88.23-21.34 88.23-19.73L88.23-19.73Q88.23-19.48 88.23-19.24 88.23-18.99 88.18-18.75ZM102.29 1.76L102.29 1.76Q98.83 1.76 96.9 0.85 94.97-0.05 94.02-1.71 93.07-3.37 92.87-5.71 92.68-8.06 92.68-10.94L92.68-10.94Q92.68-13.23 92.82-15.55 92.97-17.87 93.26-20.51L93.26-20.51Q92.58-20.51 92.19-20.48 91.8-20.46 91.55-20.46L91.55-20.46Q89.99-20.46 88.84-21.14 87.7-21.83 87.7-23.24L87.7-23.24Q87.7-24.12 88.35-24.8 89.01-25.49 90.04-25.98 91.06-26.46 92.26-26.76 93.46-27.05 94.53-27.15L94.53-27.15Q94.53-28.52 94.73-30.18 94.92-31.84 95.43-33.28 95.95-34.72 96.83-35.69 97.71-36.67 99.07-36.67L99.07-36.67Q99.85-36.67 100.46-36.21 101.07-35.74 101.46-35.03 101.86-34.33 102.05-33.45 102.25-32.57 102.25-31.74L102.25-31.74Q102.25-30.76 102.1-29.74 101.95-28.71 101.56-27.2L101.56-27.2Q102.39-27.29 102.69-27.32 102.98-27.34 103.22-27.34L103.22-27.34Q104.05-27.34 104.96-27.2 105.86-27.05 106.62-26.71 107.37-26.37 107.86-25.81 108.35-25.24 108.35-24.46L108.35-24.46Q108.35-23.58 107.64-22.9 106.93-22.22 105.86-21.73 104.79-21.24 103.56-20.97 102.34-20.7 101.27-20.61L101.27-20.61Q100.98-18.6 100.85-16.92 100.73-15.23 100.59-13.53L100.59-13.53Q100.49-12.7 100.42-11.84 100.34-10.99 100.34-10.11L100.34-10.11Q100.34-9.47 100.39-8.62 100.44-7.76 100.73-6.98 101.03-6.2 101.66-5.64 102.29-5.08 103.42-5.08L103.42-5.08Q104.1-5.08 104.83-5.2 105.57-5.32 106.3-5.32L106.3-5.32Q107.57-5.32 108.13-4.44 108.69-3.56 108.69-2.2L108.69-2.2Q108.69-1.17 108.08-0.42 107.47 0.34 106.54 0.81 105.62 1.27 104.47 1.51 103.32 1.76 102.29 1.76ZM117.72-34.08L117.72-34.08Q117.72-33.4 117.36-32.86 116.99-32.32 116.41-31.91 115.82-31.49 115.14-31.27 114.45-31.05 113.87-31.05L113.87-31.05Q112.89-31.05 112.16-31.54 111.43-32.03 111.43-33.06L111.43-33.06Q111.43-33.79 111.79-34.35 112.16-34.91 112.7-35.28 113.23-35.64 113.92-35.84 114.6-36.04 115.23-36.04L115.23-36.04Q116.16-36.04 116.94-35.6 117.72-35.16 117.72-34.08ZM118.12-17.48L118.12-17.48Q118.12-16.8 118.12-16.04 118.12-15.28 118.07-14.6L118.07-14.6Q118.02-13.77 118.02-12.38 118.02-10.99 117.92-9.38 117.82-7.76 117.6-6.1 117.38-4.44 116.89-3.08 116.41-1.71 115.6-0.85 114.79 0 113.57 0.05L113.57 0.05Q112.65 0.1 112.01-0.68 111.38-1.46 110.96-2.71 110.55-3.96 110.35-5.49 110.16-7.03 110.06-8.47 109.96-9.91 109.96-11.13 109.96-12.35 109.96-12.94L109.96-12.94Q109.96-13.72 109.96-15.16 109.96-16.6 110.06-18.26 110.16-19.92 110.42-21.63 110.69-23.34 111.21-24.76 111.72-26.17 112.55-27.05 113.38-27.93 114.65-27.93L114.65-27.93Q115.97-27.93 116.65-26.61 117.33-25.29 117.68-23.54 118.02-21.78 118.07-20.04 118.12-18.31 118.12-17.48ZM139.7-18.75L139.7-18.75Q139.7-18.51 139.65-18.24 139.6-17.97 139.5-17.72L139.5-17.72Q139.06-16.6 138.13-15.84 137.21-15.09 135.94-15.09L135.94-15.09Q134.03-15.09 133.35-16.99L133.35-16.99Q133.25-17.24 133.25-17.55 133.25-17.87 133.2-18.21L133.2-18.21 133.2-19.63Q133.11-20.31 132.86-20.7 132.62-21.09 132.03-21.09L132.03-21.09Q131.2-21.09 130.44-20.04 129.69-18.99 129.13-17.55 128.56-16.11 128.22-14.6 127.88-13.09 127.88-12.16L127.88-12.16Q127.88-11.43 127.98-10.38 128.08-9.33 128.37-8.35 128.66-7.37 129.17-6.67 129.69-5.96 130.52-5.96L130.52-5.96Q131.35-5.96 132.06-6.47 132.76-6.98 133.45-7.67L133.45-7.67Q134.08-8.25 134.84-8.89 135.6-9.52 136.57-9.52L136.57-9.52Q137.79-9.52 138.5-8.64 139.21-7.76 139.21-6.64L139.21-6.64Q139.21-4.98 138.33-3.54 137.45-2.1 136.13-1.05 134.81 0 133.2 0.61 131.59 1.22 130.13 1.22L130.13 1.22Q127.49 1.22 125.66-0.1 123.83-1.42 122.71-3.44 121.58-5.47 121.09-7.86 120.61-10.25 120.61-12.4L120.61-12.4Q120.61-14.89 121.29-17.8 121.97-20.7 123.39-23.19 124.8-25.68 127.03-27.34 129.25-29 132.32-29L132.32-29Q134.23-29 135.62-28.17 137.01-27.34 137.92-26 138.82-24.66 139.28-23 139.75-21.34 139.75-19.73L139.75-19.73Q139.75-19.48 139.75-19.24 139.75-18.99 139.7-18.75ZM162.89-8.69L162.89-8.69Q162.89-7.03 161.84-5.44 160.79-3.86 159.2-2.61 157.62-1.37 155.81-0.61 154 0.15 152.49 0.15L152.49 0.15Q149.9 0.15 147.88-1.15 145.85-2.44 144.48-4.44 143.12-6.45 142.41-8.86 141.7-11.28 141.7-13.57L141.7-13.57Q141.7-16.02 142.38-18.8 143.07-21.58 144.46-23.93 145.85-26.27 147.97-27.83 150.1-29.39 153.03-29.39L153.03-29.39Q154.69-29.39 156.2-28.83 157.71-28.27 158.84-27.25 159.96-26.22 160.64-24.8 161.33-23.39 161.33-21.63L161.33-21.63Q161.33-19.34 160.35-17.33 159.38-15.33 157.76-13.87 156.15-12.4 154.05-11.5 151.95-10.6 149.76-10.5L149.76-10.5Q149.95-9.08 150.9-8.45 151.86-7.81 153.17-7.81L153.17-7.81Q154.15-7.81 155.08-8.3 156.01-8.79 156.88-9.4 157.76-10.01 158.62-10.5 159.47-10.99 160.35-10.99L160.35-10.99Q161.33-10.99 162.11-10.35 162.89-9.72 162.89-8.69ZM154.98-20.65L154.98-20.65Q154.98-21.29 154.64-21.97 154.3-22.66 153.56-22.66L153.56-22.66Q152.49-22.66 151.76-22.09 151.03-21.53 150.54-20.68 150.05-19.82 149.78-18.85 149.51-17.87 149.46-17.04L149.46-17.04Q150.15-17.19 151.1-17.43 152.05-17.68 152.91-18.09 153.76-18.51 154.37-19.14 154.98-19.78 154.98-20.65ZM210.01-5.32L210.01-5.32Q209.86-4.05 209.59-2.83 209.33-1.61 208.94-0.66 208.54 0.29 207.93 0.85 207.32 1.42 206.54 1.42L206.54 1.42Q205.76 1.42 205.13 0.22 204.49-0.98 203.93-2.95 203.37-4.93 202.91-7.42 202.44-9.91 202.08-12.48 201.71-15.04 201.46-17.48 201.22-19.92 201.07-21.73L201.07-21.73Q200.78-19.87 200.39-17.58 200-15.28 199.46-12.92 198.93-10.55 198.29-8.28 197.66-6.01 196.92-4.22 196.19-2.44 195.36-1.37 194.53-0.29 193.6-0.29L193.6-0.29Q192.77-0.29 191.94-1.42 191.11-2.54 190.33-4.37 189.55-6.2 188.87-8.45 188.18-10.69 187.6-12.96 187.01-15.23 186.57-17.26 186.13-19.29 185.89-20.65L185.89-20.65Q185.89-19.63 185.86-18.38 185.84-17.14 185.84-16.6L185.84-16.6Q185.84-16.36 185.82-14.99 185.79-13.62 185.64-11.72 185.5-9.81 185.21-7.64 184.91-5.47 184.35-3.61 183.79-1.76 182.96-0.49 182.13 0.78 180.91 0.88L180.91 0.88Q179.93 0.44 179.27-0.61 178.61-1.66 178.17-3.08 177.73-4.49 177.49-6.1 177.25-7.71 177.1-9.25 176.95-10.79 176.93-12.11 176.9-13.43 176.9-14.26L176.9-14.26Q176.9-15.72 177.08-17.94 177.25-20.17 177.64-22.61 178.03-25.05 178.66-27.49 179.3-29.93 180.2-31.86 181.1-33.79 182.3-35.01 183.5-36.23 185.06-36.23L185.06-36.23Q185.79-36.23 186.62-35.4 187.45-34.57 188.28-33.23 189.11-31.88 189.89-30.22 190.67-28.56 191.38-26.88 192.09-25.2 192.63-23.66 193.16-22.12 193.51-21.04L193.51-21.04Q193.9-22.22 194.48-23.78 195.07-25.34 195.78-27.03 196.48-28.71 197.34-30.35 198.19-31.98 199.12-33.28 200.05-34.57 201-35.38 201.95-36.18 202.93-36.18L202.93-36.18Q204.64-36.18 205.86-34.91 207.08-33.64 207.91-31.62 208.74-29.59 209.23-27.08 209.72-24.56 209.99-22.09 210.25-19.63 210.33-17.48 210.4-15.33 210.4-14.01L210.4-14.01Q210.4-13.48 210.4-12.55 210.4-11.62 210.38-10.45 210.35-9.28 210.25-7.96 210.16-6.64 210.01-5.32ZM234.62-6.88L234.62-6.88Q234.62-6.01 234.55-4.59 234.47-3.17 234.13-1.83 233.79-0.49 233.06 0.49 232.32 1.46 231.01 1.46L231.01 1.46Q229.2 1.46 228.22 0.29 227.25-0.88 227.29-2.64L227.29-2.64Q225.73-1.27 223.75-0.49 221.78 0.29 219.73 0.29L219.73 0.29Q218.31 0.29 217.04-0.39 215.77-1.07 214.79-2.15 213.82-3.22 213.23-4.57 212.65-5.91 212.65-7.23L212.65-7.23Q212.65-9.57 214.09-11.33 215.53-13.09 217.63-14.33 219.73-15.58 222.09-16.31 224.46-17.04 226.32-17.29L226.32-17.29Q226.32-17.53 226.34-17.72 226.37-17.92 226.37-18.16L226.37-18.16Q226.37-19.68 225.54-20.61 224.71-21.53 223.19-21.53L223.19-21.53Q221.97-21.53 221.09-21.12 220.21-20.7 219.43-20.19 218.65-19.68 217.87-19.26 217.09-18.85 216.11-18.85L216.11-18.85Q215.04-18.85 214.28-19.53 213.53-20.21 213.53-21.29L213.53-21.29Q213.53-22.9 214.48-24.22 215.43-25.54 216.87-26.44 218.31-27.34 220-27.86 221.68-28.37 223.1-28.37L223.1-28.37Q224.41-28.37 225.73-28.05 227.05-27.73 228.22-27.08 229.39-26.42 230.35-25.46 231.3-24.51 231.88-23.24L231.88-23.24Q232.76-21.44 233.3-19.41 233.84-17.38 234.13-15.26 234.42-13.13 234.52-11.01 234.62-8.89 234.62-6.88ZM226.81-8.45L226.81-8.45 226.66-11.77Q226.56-11.77 226.46-11.79 226.37-11.82 226.27-11.82L226.27-11.82Q225.63-11.82 224.68-11.5 223.73-11.18 222.85-10.62 221.97-10.06 221.36-9.38 220.75-8.69 220.75-7.96L220.75-7.96Q220.75-7.28 221.24-7.03 221.73-6.79 222.36-6.79L222.36-6.79Q223.44-6.79 224.66-7.35 225.88-7.91 226.81-8.45ZM259.23-26.27L259.23-26.27Q259.23-24.9 258.52-23.49 257.81-22.07 256.81-20.68 255.81-19.29 254.71-18.04 253.61-16.8 252.78-15.77L252.78-15.77Q253.47-14.7 254.49-12.92 255.52-11.13 256.45-9.13 257.37-7.13 258.03-5.22 258.69-3.32 258.69-2.05L258.69-2.05Q258.69-1.03 258.06-0.17 257.42 0.68 256.3 0.68L256.3 0.68Q255.47 0.68 254.61-0.02 253.76-0.73 252.91-1.88 252.05-3.03 251.27-4.44 250.49-5.86 249.83-7.23 249.17-8.59 248.66-9.79 248.14-10.99 247.85-11.72L247.85-11.72Q247.22-11.08 246.51-10.67 245.8-10.25 245.12-9.72L245.12-9.72Q245.12-8.69 245.04-6.84 244.97-4.98 244.6-3.17 244.24-1.37 243.41-0.02 242.58 1.32 240.97 1.32L240.97 1.32Q239.7 1.32 239.01 0.17 238.33-0.98 238.01-2.51 237.7-4.05 237.65-5.64 237.6-7.23 237.6-8.06L237.6-8.06Q237.6-11.67 237.79-15.28 237.99-18.9 238.04-22.51L238.04-22.51Q238.04-23.34 238.06-24.68 238.09-26.03 238.23-27.59 238.38-29.15 238.67-30.76 238.96-32.37 239.5-33.67 240.04-34.96 240.89-35.77 241.75-36.57 242.97-36.57L242.97-36.57Q243.85-36.57 244.46-35.91 245.07-35.25 245.43-34.23 245.8-33.2 245.97-31.93 246.14-30.66 246.22-29.42 246.29-28.17 246.29-27.1 246.29-26.03 246.29-25.39L246.29-25.39Q246.29-24.95 246.26-24.1 246.24-23.24 246.22-22.31 246.19-21.39 246.19-20.61 246.19-19.82 246.29-19.48L246.29-19.48Q246.63-19.48 247.31-20.14 248-20.8 248.9-21.83 249.8-22.85 250.85-24 251.9-25.15 253-26.17 254.1-27.2 255.18-27.86 256.25-28.52 257.18-28.52L257.18-28.52Q258.15-28.52 258.69-27.83 259.23-27.15 259.23-26.27ZM281.15-8.69L281.15-8.69Q281.15-7.03 280.1-5.44 279.05-3.86 277.47-2.61 275.88-1.37 274.07-0.61 272.27 0.15 270.75 0.15L270.75 0.15Q268.16 0.15 266.14-1.15 264.11-2.44 262.74-4.44 261.38-6.45 260.67-8.86 259.96-11.28 259.96-13.57L259.96-13.57Q259.96-16.02 260.64-18.8 261.33-21.58 262.72-23.93 264.11-26.27 266.24-27.83 268.36-29.39 271.29-29.39L271.29-29.39Q272.95-29.39 274.46-28.83 275.98-28.27 277.1-27.25 278.22-26.22 278.91-24.8 279.59-23.39 279.59-21.63L279.59-21.63Q279.59-19.34 278.61-17.33 277.64-15.33 276.03-13.87 274.41-12.4 272.31-11.5 270.21-10.6 268.02-10.5L268.02-10.5Q268.21-9.08 269.17-8.45 270.12-7.81 271.44-7.81L271.44-7.81Q272.41-7.81 273.34-8.3 274.27-8.79 275.15-9.4 276.03-10.01 276.88-10.5 277.73-10.99 278.61-10.99L278.61-10.99Q279.59-10.99 280.37-10.35 281.15-9.72 281.15-8.69ZM273.24-20.65L273.24-20.65Q273.24-21.29 272.9-21.97 272.56-22.66 271.83-22.66L271.83-22.66Q270.75-22.66 270.02-22.09 269.29-21.53 268.8-20.68 268.31-19.82 268.04-18.85 267.77-17.87 267.72-17.04L267.72-17.04Q268.41-17.19 269.36-17.43 270.31-17.68 271.17-18.09 272.02-18.51 272.63-19.14 273.24-19.78 273.24-20.65ZM317.53-26.17L317.53-26.17Q317.53-23.54 316.38-21 315.23-18.46 313.33-16.43 311.43-14.4 308.98-13.11 306.54-11.82 303.96-11.67L303.96-11.67Q303.91-10.79 303.88-9.45 303.86-8.11 303.71-6.64 303.56-5.18 303.3-3.71 303.03-2.25 302.51-1.07 302 0.1 301.2 0.83 300.39 1.56 299.22 1.56L299.22 1.56Q297.85 1.56 297.05 0.66 296.24-0.24 295.83-1.51 295.41-2.78 295.26-4.17 295.12-5.57 295.07-6.54L295.07-6.54Q294.97-7.96 294.95-9.33 294.92-10.69 294.92-12.11L294.92-12.11Q294.92-12.74 294.92-14.48 294.92-16.21 294.95-18.43 294.97-20.65 295.02-23.07 295.07-25.49 295.17-27.56 295.26-29.64 295.39-31.1 295.51-32.57 295.7-32.81L295.7-32.81Q295.75-32.86 296-33.03 296.24-33.2 296.53-33.37 296.83-33.54 297.07-33.69 297.31-33.84 297.41-33.89L297.41-33.89Q299.66-35.16 302.34-36.08 305.03-37.01 307.67-37.01L307.67-37.01Q309.91-37.01 311.74-36.11 313.57-35.21 314.87-33.72 316.16-32.23 316.85-30.25 317.53-28.27 317.53-26.17ZM309.08-25.05L309.08-25.05Q309.08-26.03 308.62-26.76 308.15-27.49 307.08-27.49L307.08-27.49Q306.15-27.49 305.22-27.12 304.3-26.76 303.52-26.37L303.52-26.37Q303.66-24.66 303.78-23.05 303.91-21.44 303.81-19.73L303.81-19.73Q304.59-20.12 305.52-20.63 306.45-21.14 307.23-21.78 308.01-22.41 308.54-23.22 309.08-24.02 309.08-25.05ZM339.16-8.69L339.16-8.69Q339.16-7.03 338.11-5.44 337.06-3.86 335.47-2.61 333.89-1.37 332.08-0.61 330.27 0.15 328.76 0.15L328.76 0.15Q326.17 0.15 324.15-1.15 322.12-2.44 320.75-4.44 319.38-6.45 318.68-8.86 317.97-11.28 317.97-13.57L317.97-13.57Q317.97-16.02 318.65-18.8 319.34-21.58 320.73-23.93 322.12-26.27 324.24-27.83 326.37-29.39 329.3-29.39L329.3-29.39Q330.96-29.39 332.47-28.83 333.98-28.27 335.11-27.25 336.23-26.22 336.91-24.8 337.6-23.39 337.6-21.63L337.6-21.63Q337.6-19.34 336.62-17.33 335.64-15.33 334.03-13.87 332.42-12.4 330.32-11.5 328.22-10.6 326.03-10.5L326.03-10.5Q326.22-9.08 327.17-8.45 328.13-7.81 329.44-7.81L329.44-7.81Q330.42-7.81 331.35-8.3 332.28-8.79 333.15-9.4 334.03-10.01 334.89-10.5 335.74-10.99 336.62-10.99L336.62-10.99Q337.6-10.99 338.38-10.35 339.16-9.72 339.16-8.69ZM331.25-20.65L331.25-20.65Q331.25-21.29 330.91-21.97 330.57-22.66 329.83-22.66L329.83-22.66Q328.76-22.66 328.03-22.09 327.29-21.53 326.81-20.68 326.32-19.82 326.05-18.85 325.78-17.87 325.73-17.04L325.73-17.04Q326.42-17.19 327.37-17.43 328.32-17.68 329.17-18.09 330.03-18.51 330.64-19.14 331.25-19.78 331.25-20.65ZM358.06-18.26L358.06-18.26Q357.37-18.21 356.88-18.38 356.4-18.55 355.91-18.75L355.91-18.75Q355.47-18.95 355.03-19.12 354.59-19.29 354.05-19.24L354.05-19.24Q353.08-19.19 352.32-18.7 351.56-18.21 350.95-17.48 350.34-16.75 349.9-15.84 349.46-14.94 349.22-14.06L349.22-14.06Q349.07-13.48 349-12.28 348.93-11.08 348.93-9.72L348.93-9.72Q348.88-8.3 348.88-7.03 348.88-5.76 348.78-5.03L348.78-5.03Q348.73-4.25 348.54-3.2 348.34-2.15 347.92-1.22 347.51-0.29 346.83 0.34 346.14 0.98 345.07 0.98L345.07 0.98Q344.24 0.98 343.63 0.49 343.02 0 342.6-0.81 342.19-1.61 341.92-2.69 341.65-3.76 341.5-4.88L341.5-4.88Q341.36-6.05 341.28-7.23 341.21-8.4 341.19-9.45 341.16-10.5 341.19-11.38 341.21-12.26 341.21-12.79L341.21-12.79Q341.16-14.5 341.04-16.24 340.92-17.97 340.92-19.68L340.92-19.68Q340.92-20.75 341.02-22.07 341.11-23.39 341.55-24.54 341.99-25.68 342.85-26.46 343.7-27.25 345.21-27.25L345.21-27.25Q346.04-27.25 346.63-26.71 347.22-26.17 347.58-25.39 347.95-24.61 348.14-23.73 348.34-22.85 348.39-22.12L348.39-22.12Q349.56-24.02 351.03-25.22 352.49-26.42 354.83-26.51L354.83-26.51Q356.01-26.56 357.15-26.29 358.3-26.03 359.25-25.42 360.21-24.8 360.82-23.83 361.43-22.85 361.47-21.53L361.47-21.53Q361.57-19.97 360.55-19.14 359.52-18.31 358.06-18.26ZM382.67-29.2L382.67-29.2Q382.67-28.27 382.5-27.42 382.32-26.56 381.88-25.93 381.45-25.29 380.71-24.93 379.98-24.56 378.91-24.56L378.91-24.56Q377.69-24.56 377.1-25.05 376.51-25.54 376.29-26.25 376.07-26.95 376.07-27.78 376.07-28.61 376-29.32 375.93-30.03 375.63-30.52 375.34-31.01 374.56-31.01L374.56-31.01Q373.83-31.01 373.36-29.88 372.9-28.76 372.61-27.29 372.31-25.83 372.22-24.44 372.12-23.05 372.12-22.56L372.12-22.56Q372.75-22.66 373.34-22.73 373.93-22.8 374.61-22.8L374.61-22.8Q375.29-22.8 376.03-22.66 376.76-22.51 377.39-22.19 378.03-21.88 378.42-21.31 378.81-20.75 378.81-19.92L378.81-19.92Q378.81-19.04 378.05-18.36 377.29-17.68 376.25-17.21 375.2-16.75 374.12-16.46 373.05-16.16 372.41-16.06L372.41-16.06Q372.56-12.7 372.56-9.28L372.56-9.28Q372.56-6.05 372.41-2.93L372.41-2.93Q372.31-1.42 371.36-0.44 370.41 0.54 368.9 0.54L368.9 0.54Q368.07 0.54 367.48 0.22 366.89-0.1 366.5-0.63 366.11-1.17 365.89-1.86 365.67-2.54 365.63-3.27L365.63-3.27Q365.38-6.2 365.23-9.16 365.09-12.11 365.14-15.09L365.14-15.09Q364.79-15.04 364.48-15.04 364.16-15.04 363.82-15.04L363.82-15.04Q363.23-15.04 362.4-15.19 361.57-15.33 360.82-15.7 360.06-16.06 359.52-16.6 358.98-17.14 358.98-17.97L358.98-17.97Q358.98-19.04 359.69-19.78 360.4-20.51 361.4-20.97 362.4-21.44 363.5-21.63 364.6-21.83 365.43-21.92L365.43-21.92 365.43-22.71Q365.43-25.1 365.87-27.83 366.31-30.57 367.43-32.91 368.55-35.25 370.51-36.79 372.46-38.33 375.49-38.33L375.49-38.33Q377.39-38.33 378.76-37.52 380.13-36.72 381.01-35.42 381.88-34.13 382.28-32.5 382.67-30.86 382.67-29.2ZM401.32-8.69L401.32-8.69Q401.32-7.03 400.27-5.44 399.22-3.86 397.63-2.61 396.04-1.37 394.24-0.61 392.43 0.15 390.92 0.15L390.92 0.15Q388.33 0.15 386.3-1.15 384.28-2.44 382.91-4.44 381.54-6.45 380.83-8.86 380.13-11.28 380.13-13.57L380.13-13.57Q380.13-16.02 380.81-18.8 381.49-21.58 382.89-23.93 384.28-26.27 386.4-27.83 388.53-29.39 391.46-29.39L391.46-29.39Q393.12-29.39 394.63-28.83 396.14-28.27 397.27-27.25 398.39-26.22 399.07-24.8 399.76-23.39 399.76-21.63L399.76-21.63Q399.76-19.34 398.78-17.33 397.8-15.33 396.19-13.87 394.58-12.4 392.48-11.5 390.38-10.6 388.18-10.5L388.18-10.5Q388.38-9.08 389.33-8.45 390.28-7.81 391.6-7.81L391.6-7.81Q392.58-7.81 393.51-8.3 394.43-8.79 395.31-9.4 396.19-10.01 397.05-10.5 397.9-10.99 398.78-10.99L398.78-10.99Q399.76-10.99 400.54-10.35 401.32-9.72 401.32-8.69ZM393.41-20.65L393.41-20.65Q393.41-21.29 393.07-21.97 392.72-22.66 391.99-22.66L391.99-22.66Q390.92-22.66 390.19-22.09 389.45-21.53 388.96-20.68 388.48-19.82 388.21-18.85 387.94-17.87 387.89-17.04L387.89-17.04Q388.57-17.19 389.53-17.43 390.48-17.68 391.33-18.09 392.19-18.51 392.8-19.14 393.41-19.78 393.41-20.65ZM421.39-18.75L421.39-18.75Q421.39-18.51 421.34-18.24 421.29-17.97 421.19-17.72L421.19-17.72Q420.75-16.6 419.82-15.84 418.9-15.09 417.63-15.09L417.63-15.09Q415.72-15.09 415.04-16.99L415.04-16.99Q414.94-17.24 414.94-17.55 414.94-17.87 414.89-18.21L414.89-18.21 414.89-19.63Q414.79-20.31 414.55-20.7 414.31-21.09 413.72-21.09L413.72-21.09Q412.89-21.09 412.13-20.04 411.38-18.99 410.82-17.55 410.25-16.11 409.91-14.6 409.57-13.09 409.57-12.16L409.57-12.16Q409.57-11.43 409.67-10.38 409.77-9.33 410.06-8.35 410.35-7.37 410.86-6.67 411.38-5.96 412.21-5.96L412.21-5.96Q413.04-5.96 413.75-6.47 414.45-6.98 415.14-7.67L415.14-7.67Q415.77-8.25 416.53-8.89 417.29-9.52 418.26-9.52L418.26-9.52Q419.48-9.52 420.19-8.64 420.9-7.76 420.9-6.64L420.9-6.64Q420.9-4.98 420.02-3.54 419.14-2.1 417.82-1.05 416.5 0 414.89 0.61 413.28 1.22 411.82 1.22L411.82 1.22Q409.18 1.22 407.35-0.1 405.52-1.42 404.39-3.44 403.27-5.47 402.78-7.86 402.29-10.25 402.29-12.4L402.29-12.4Q402.29-14.89 402.98-17.8 403.66-20.7 405.08-23.19 406.49-25.68 408.72-27.34 410.94-29 414.01-29L414.01-29Q415.92-29 417.31-28.17 418.7-27.34 419.6-26 420.51-24.66 420.97-23 421.44-21.34 421.44-19.73L421.44-19.73Q421.44-19.48 421.44-19.24 421.44-18.99 421.39-18.75ZM435.5 1.76L435.5 1.76Q432.03 1.76 430.1 0.85 428.17-0.05 427.22-1.71 426.27-3.37 426.07-5.71 425.88-8.06 425.88-10.94L425.88-10.94Q425.88-13.23 426.03-15.55 426.17-17.87 426.46-20.51L426.46-20.51Q425.78-20.51 425.39-20.48 425-20.46 424.76-20.46L424.76-20.46Q423.19-20.46 422.05-21.14 420.9-21.83 420.9-23.24L420.9-23.24Q420.9-24.12 421.56-24.8 422.22-25.49 423.24-25.98 424.27-26.46 425.46-26.76 426.66-27.05 427.73-27.15L427.73-27.15Q427.73-28.52 427.93-30.18 428.13-31.84 428.64-33.28 429.15-34.72 430.03-35.69 430.91-36.67 432.28-36.67L432.28-36.67Q433.06-36.67 433.67-36.21 434.28-35.74 434.67-35.03 435.06-34.33 435.25-33.45 435.45-32.57 435.45-31.74L435.45-31.74Q435.45-30.76 435.3-29.74 435.16-28.71 434.77-27.2L434.77-27.2Q435.6-27.29 435.89-27.32 436.18-27.34 436.43-27.34L436.43-27.34Q437.26-27.34 438.16-27.2 439.06-27.05 439.82-26.71 440.58-26.37 441.06-25.81 441.55-25.24 441.55-24.46L441.55-24.46Q441.55-23.58 440.84-22.9 440.14-22.22 439.06-21.73 437.99-21.24 436.77-20.97 435.55-20.7 434.47-20.61L434.47-20.61Q434.18-18.6 434.06-16.92 433.94-15.23 433.79-13.53L433.79-13.53Q433.69-12.7 433.62-11.84 433.54-10.99 433.54-10.11L433.54-10.11Q433.54-9.47 433.59-8.62 433.64-7.76 433.94-6.98 434.23-6.2 434.86-5.64 435.5-5.08 436.62-5.08L436.62-5.08Q437.3-5.08 438.04-5.2 438.77-5.32 439.5-5.32L439.5-5.32Q440.77-5.32 441.33-4.44 441.89-3.56 441.89-2.2L441.89-2.2Q441.89-1.17 441.28-0.42 440.67 0.34 439.75 0.81 438.82 1.27 437.67 1.51 436.52 1.76 435.5 1.76Z" opacity="1" transform="matrix(1,0,0,1,0,0)" fill="#fa4238" class="slogan-text-1" data-fill-palette-color="secondary" id="text-1"></path></svg></g></svg></g></svg></g></svg></g><g></g></svg></g></svg></g></svg></g></svg></g><defs></defs></svg><rect width="395.52" height="247.2" fill="none" stroke="none" visibility="hidden"></rect></g></svg></g></svg>